<?xml version="1.0" encoding="utf-8"?>
<!-- Generator: Adobe Illustrator 24.1.0, SVG Export Plug-In . SVG Version: 6.00 Build 0)  -->
<svg version="1.1" id="Layer_1" xmlns="http://www.w3.org/2000/svg" xmlns:xlink="http://www.w3.org/1999/xlink" x="0px" y="0px"
	 viewBox="0 0 640 430" style="enable-background:new 0 0 640 430;" xml:space="preserve">
<style type="text/css">
	.st0{fill:#FFFFFF;}
	.st1{fill:#5A5B5C;}
	.st2{fill:url(#SVGID_1_);}
	.st3{fill:url(#SVGID_2_);}
	.st4{fill:url(#SVGID_3_);}
	.st5{fill:url(#SVGID_4_);}
	.st6{fill:url(#SVGID_5_);}
	.st7{fill:url(#SVGID_6_);}
	.st8{fill:url(#SVGID_7_);}
	.st9{fill:url(#SVGID_8_);}
	.st10{fill:url(#SVGID_9_);}
	.st11{fill:url(#SVGID_10_);}
	.st12{fill:url(#SVGID_11_);}
	.st13{fill:url(#SVGID_12_);}
	.st14{fill:url(#SVGID_13_);}
	.st15{fill:url(#SVGID_14_);}
	.st16{fill:url(#SVGID_15_);}
	.st17{fill:url(#SVGID_16_);}
	.st18{fill:url(#SVGID_17_);}
	.st19{fill:url(#SVGID_18_);}
	.st20{fill:url(#SVGID_19_);}
</style>
<rect y="124" class="st0" width="640" height="170"/>
<path class="st1" d="M59.2,182.5c-3-3.1-6.6-5.6-10.6-7.3c-4.1-1.8-8.6-2.7-13.1-2.7s-9,1-13,3.1c-3.2,1.6-6.1,3.8-8.6,6.4v-25.4
	c0-3.4-2.7-6.1-6.1-6.1s-6.1,2.7-6.1,6.1l0,0v50.8c0,4.7,0.8,9.4,2.6,13.8c1.6,4.1,4.1,7.9,7.1,11.1c3,3.2,6.6,5.7,10.6,7.5
	c8.4,3.6,17.9,3.6,26.2,0.1c4-1.7,7.6-4.3,10.6-7.4c3.1-3.2,5.5-7,7.2-11.1c3.5-8.9,3.5-18.8,0.1-27.8
	C64.7,189.4,62.3,185.6,59.2,182.5z M54.8,216.6c-1,2.7-2.6,5.3-4.5,7.4c-1.9,2.1-4.1,3.8-6.7,5c-5.1,2.4-11,2.4-16.2,0
	c-2.6-1.2-4.8-2.9-6.7-5c-2-2.2-3.6-4.7-4.6-7.5c-1.1-2.9-1.7-6-1.7-9.1s0.6-6.2,1.7-9.1c1.1-2.7,2.6-5.2,4.6-7.4
	c1.9-2.1,4.1-3.8,6.7-5c5.2-2.4,11.1-2.4,16.3,0c2.5,1.2,4.8,2.9,6.7,4.9c2,2.1,3.5,4.6,4.5,7.4c1.1,2.9,1.7,6,1.6,9.2
	C56.4,210.5,55.9,213.7,54.8,216.6L54.8,216.6z"/>
<path class="st1" d="M84,150.5h-0.4c-3.3,0-6.1,2.7-6.1,6.1v78.2c0,3.5,2.8,6.3,6.3,6.2c3.4,0,6.2-2.8,6.2-6.2v-78.2
	C90,153.2,87.3,150.5,84,150.5z"/>
<path class="st1" d="M155.7,182.6c-3.1-3.2-6.8-5.8-10.8-7.5s-8.3-2.6-12.6-2.6c-4.5,0-9,0.9-13.1,2.8c-4,1.8-7.6,4.4-10.6,7.5
	c-9.7,10.3-12.5,25.4-7.2,38.5c3.4,8.3,9.9,14.9,18.1,18.4c4.3,1.8,8.9,2.8,13.5,2.7c7.7,0,14.4-1.9,19.8-5.8c3.1-2.2,5.7-5,7.8-8.2
	c1.3-1.9,1.3-4.4,0.2-6.4s-3.1-3.2-5.4-3.2c-2.1,0-4.1,1.1-5.3,3c-1.5,2.4-3.5,4.5-5.9,6c-3.5,2.1-7.6,3.2-11.7,3
	c-1.2,0-2.3-0.1-3.4-0.3c-3.9-0.7-7.4-2.5-10.3-5.1c-2-1.9-3.7-4.1-5-6.5c-1.2-2.4-2-5-2.4-7.7H166v-0.9c0.1-5.4-0.9-10.8-2.8-15.9
	C161.5,190.1,158.9,186,155.7,182.6z M112.1,199.9c0.6-2.2,1.6-4.2,2.8-6.1c1.3-2,3-3.8,4.9-5.4c1.8-1.4,3.8-2.6,5.9-3.3
	c4.2-1.5,8.8-1.5,13,0.1c2.1,0.8,4.1,2,5.9,3.4c1.8,1.6,3.4,3.4,4.7,5.4c1.1,1.8,2,3.8,2.7,5.8L112.1,199.9z"/>
<path class="st1" d="M221.1,180.2c-2.6-2.5-5.6-4.4-8.9-5.7c-7.2-2.7-15.1-2.7-22.3,0c-3.3,1.3-6.4,3.2-8.9,5.7s-4.5,5.5-5.9,8.8
	c-1.5,3.7-2.2,7.6-2.2,11.5v34.2c0,3.5,2.8,6.2,6.3,6.2c3.4,0,6.2-2.8,6.2-6.2v-34.6c-0.2-4.2,1.4-8.3,4.2-11.5
	c2.8-3,6.6-4.5,11.4-4.5c4.8,0,8.6,1.5,11.3,4.5c2.8,3.1,4.3,7.2,4.2,11.5v34.6c0,3.5,2.8,6.2,6.3,6.2c3.4,0,6.2-2.8,6.2-6.2v-34.2
	c0.1-3.9-0.7-7.8-2.1-11.5C225.6,185.7,223.6,182.7,221.1,180.2z"/>
<path class="st1" d="M297.5,150.5c-3.3,0-6.1,2.7-6.1,6.1V182c-2.5-2.6-5.4-4.8-8.6-6.4c-4-2-8.5-3.1-13.1-3.1
	c-4.5,0-8.9,0.9-13,2.7c-4,1.7-7.6,4.2-10.7,7.3c-3.1,3.2-5.5,6.9-7.2,11c-3.5,8.9-3.5,18.9,0.1,27.8c1.7,4.1,4.1,7.9,7.2,11.1
	c6.2,6.5,14.8,10.1,23.8,10.1c4.6,0,9.1-0.9,13.3-2.7c4-1.8,7.6-4.3,10.6-7.5s5.4-7,7.1-11.1c1.7-4.4,2.6-9.1,2.6-13.8v-50.8
	C303.6,153.2,300.8,150.5,297.5,150.5z M289.3,216.5c-1.1,2.8-2.7,5.3-4.6,7.5c-1.9,2.1-4.2,3.8-6.7,5c-5.1,2.4-11,2.4-16.2,0
	c-2.5-1.2-4.8-2.9-6.7-5c-2-2.2-3.5-4.7-4.6-7.4c-1.1-3-1.7-6.1-1.6-9.3c0-3.1,0.5-6.2,1.6-9.2c2-5.4,6.1-9.8,11.3-12.3
	c5.2-2.4,11.1-2.4,16.3,0c2.5,1.2,4.8,2.9,6.7,5c1.9,2.2,3.5,4.7,4.6,7.4c1.1,2.9,1.7,6,1.7,9.1
	C291.1,210.5,290.5,213.6,289.3,216.5z"/>
<linearGradient id="SVGID_1_" gradientUnits="userSpaceOnUse" x1="909.3069" y1="890.9432" x2="657.2223" y2="890.9432" gradientTransform="matrix(1 0 0 1 -296.1884 -683.5983)">
	<stop  offset="1.200000e-03" style="stop-color:#8000FF"/>
	<stop  offset="1" style="stop-color:#EC2027"/>
</linearGradient>
<path class="st2" d="M447.9,172.3c-14.4,0.2-27.2,9.2-32.3,22.6l0,0l-0.2,0.7c-0.5,1.3-0.9,2.7-1.2,4l-6.1,20.9l-12.4-42
	c-0.9-2.7-3.4-4.6-6.2-4.5h-3.2c-2.9,0-5.4,1.8-6.2,4.5l-12.4,42l-12.3-41.8c-1-3.5-4.7-5.5-8.2-4.5c-1.4,0.4-2.7,1.3-3.5,2.5
	c-1.1,1.6-1.4,3.7-0.8,5.6l16.4,52.6c1.5,4.6,6.5,7,11.1,5.4c2.6-0.9,4.7-3,5.5-5.6l12-41.3l12,41.3c1.1,3.6,4.5,6.1,8.3,6.1h0.1
	c3.7,0,7.1-2.3,8.2-5.9l11-36.8c5.1-11.7,18.7-17,30.3-11.9s17,18.7,11.9,30.3c-5.1,11.7-18.7,17-30.3,11.9c-2.8-1.2-5.3-3-7.4-5.2
	c-0.8-0.9-2.2-0.9-3-0.1c-0.3,0.3-0.5,0.6-0.6,0.9l-2.5,8.3c-0.3,0.8,0,1.7,0.7,2.3c15.1,12.2,37.1,9.8,49.3-5.3
	c5.5-6.8,8.2-15.3,7.7-24C482.4,186.8,466.7,172.2,447.9,172.3z"/>
<linearGradient id="SVGID_2_" gradientUnits="userSpaceOnUse" x1="909.307" y1="890.3936" x2="657.2222" y2="890.3936" gradientTransform="matrix(1 0 0 1 -296.1884 -683.5983)">
	<stop  offset="1.200000e-03" style="stop-color:#8000FF"/>
	<stop  offset="1" style="stop-color:#EC2027"/>
</linearGradient>
<path class="st3" d="M517.4,172.6c-2.4,0.1-4.7,0.4-7,1c-3.8,0.9-7.2,2.7-10.2,5.2c-3,2.6-5.4,5.8-7,9.4l0,0
	c-1.8,4.2-2.7,8.7-2.6,13.2V235c0,3.3,2.7,6,6,6h0.6c3.3,0,6-2.7,6-6v-33.8c0-6,1.7-10.4,5.2-13.2c2.8-2.1,6.2-3.3,9.7-3.4
	c3.1-0.2,5.6-2.8,5.6-5.9c0-1.6-0.6-3.2-1.8-4.3C520.6,173.2,519.1,172.5,517.4,172.6z"/>
<linearGradient id="SVGID_3_" gradientUnits="userSpaceOnUse" x1="909.3069" y1="879.3983" x2="657.2223" y2="879.3983" gradientTransform="matrix(1 0 0 1 -296.1884 -683.5983)">
	<stop  offset="1.200000e-03" style="stop-color:#8000FF"/>
	<stop  offset="1" style="stop-color:#EC2027"/>
</linearGradient>
<path class="st4" d="M563.3,199.5l15.1-14.6c2.5-2.4,2.6-6.4,0.1-8.9c-1.2-1.2-2.8-1.9-4.5-1.9h-0.3c-1.6,0-3.2,0.6-4.4,1.8
	l-26.6,26.2v-45.3c0-3.5-2.8-6.3-6.2-6.3c-3.5,0-6.3,2.8-6.3,6.2c0,0,0,0,0,0.1v78c0,3.5,2.8,6.2,6.3,6.2c3.4,0,6.2-2.8,6.2-6.2
	v-15.2l11.5-11.1l20,29.8c1.2,1.7,3.1,2.8,5.2,2.8c3.5,0,6.3-2.8,6.3-6.3c0-1.2-0.4-2.5-1.1-3.5L563.3,199.5z"/>
<linearGradient id="SVGID_4_" gradientUnits="userSpaceOnUse" x1="909.307" y1="891.1421" x2="657.2223" y2="891.1421" gradientTransform="matrix(1 0 0 1 -296.1884 -683.5983)">
	<stop  offset="1.200000e-03" style="stop-color:#8000FF"/>
	<stop  offset="1" style="stop-color:#EC2027"/>
</linearGradient>
<path class="st5" d="M636.1,175.8c-1.3-1.2-2.9-1.7-4.7-1.6c-5.7,0.4-11.1,2.7-15.3,6.6c-3.1,2.9-5.3,6.6-6.5,10.6
	c-1.4,5.2-2,10.6-1.9,16.1c0,2.4-0.1,4.7-0.4,7.1c-0.2,1.7-0.5,3.3-1,5c-0.3,1.1-0.8,2.2-1.4,3.2c-0.5,0.8-1.1,1.5-1.8,2.2
	c-1.5,1.3-3.2,2.3-5.2,2.9c-0.9,0.3-1.8,0.5-2.7,0.6c-3.4,0.4-5.9,3.5-5.5,7c0.2,1.5,0.9,2.9,2,3.9s2.5,1.5,4,1.5c0.2,0,0.5,0,0.7,0
	c2-0.2,3.9-0.6,5.8-1.2c7.6-2.4,13.6-8.5,15.9-16.1c1.4-5.2,2-10.6,1.9-16c0-2.4,0.1-4.7,0.4-7.1c0.2-1.7,0.5-3.3,1-5
	c0.3-1.1,0.8-2.2,1.4-3.3c0.5-0.9,1.2-1.6,1.9-2.4c1.5-1.5,3.4-2.4,5.4-2.9c0.8-0.2,1.5-0.3,2.3-0.4c3.4-0.4,5.9-3.4,5.5-6.9
	C638,178.2,637.3,176.8,636.1,175.8L636.1,175.8z"/>
<linearGradient id="SVGID_5_" gradientUnits="userSpaceOnUse" x1="909.307" y1="542.5332" x2="657.2223" y2="542.5332" gradientTransform="matrix(1 0 0 1 0 -335.0332)">
	<stop  offset="1.200000e-03" style="stop-color:#8000FF"/>
	<stop  offset="1" style="stop-color:#EC2027"/>
</linearGradient>
<circle class="st6" cx="325.7" cy="207.5" r="10.6"/>
<path class="st1" d="M344.5,273.5h-2V257h2V273.5z"/>
<path class="st1" d="M350.1,273.5h-2V266c0-2.8,2.3-5.1,5.1-5.1c2.8,0,5.1,2.3,5.1,5.1l0,0v7.4h-2V266c0-1.7-1.3-3.1-3-3.2
	c-1.7,0-3.1,1.3-3.2,3v0.1V273.5z"/>
<path class="st1" d="M363.4,261.3h2.8v1.9h-2.8v10.3h-2v-12.7c-0.1-1.5,0.4-2.9,1.4-4c0.9-0.8,2.2-1.2,3.4-0.9v1.8
	c-0.7-0.1-1.5,0.1-2.1,0.5c-0.6,0.7-0.8,1.6-0.8,2.5L363.4,261.3z"/>
<path class="st1" d="M376.5,261.2h2v7.4c0,2.8-2.3,5.1-5.1,5.1c-2.8,0-5.1-2.3-5.1-5.1l0,0v-7.4h2v7.4c0,1.7,1.3,3.1,3,3.2
	c1.7,0,3.1-1.3,3.2-3v-0.1V261.2z"/>
<path class="st1" d="M388.7,263.2c-0.9-0.1-1.8,0.1-2.5,0.7c-0.5,0.5-0.9,1.3-0.9,3.5c0,2.4-0.4,3.8-1.5,4.9
	c-1.1,0.9-2.5,1.4-3.9,1.3v-2c0.9,0.1,1.8-0.2,2.5-0.7c0.5-0.5,0.9-1.3,0.9-3.4c0-2.4,0.4-3.9,1.5-4.9c1.1-0.9,2.5-1.4,3.9-1.2
	V263.2z"/>
<path class="st1" d="M390.7,259.4v-1.5c0-0.6,0.5-1,1-1s1,0.4,1,1v1.5H390.7z M392.8,273.5h-2v-12.3h2V273.5z"/>
<path class="st1" d="M398.1,273.5h-2V266c0-2.8,2.3-5.1,5.1-5.1c2.8,0,5.1,2.3,5.1,5.1l0,0v7.4h-2V266c0-1.7-1.3-3.1-3-3.2
	c-1.7,0-3.1,1.3-3.2,3v0.1V273.5z"/>
<path class="st1" d="M421,272.9c0,3.9-2.5,6.6-6.3,6.6c-2.9,0-5.1-1.5-5.8-4h2.1c0.7,1.4,2.1,2.2,3.6,2.1c3.2,0,4.3-2.4,4.3-4.6
	v-1.2c-1,1.3-2.5,2.1-4.2,2c-3.6,0.1-6.6-2.6-6.7-6.2s2.6-6.6,6.2-6.7s6.6,2.6,6.7,6.2c0,0.1,0,0.2,0,0.3L421,272.9L421,272.9z
	 M414.9,262.8c-2.5-0.2-4.8,1.6-5,4.1s1.6,4.8,4.1,5s4.8-1.6,5-4.1c0-0.1,0-0.3,0-0.4C419.1,265,417.3,262.9,414.9,262.8z"/>
<linearGradient id="SVGID_6_" gradientUnits="userSpaceOnUse" x1="732.437" y1="928.1292" x2="732.437" y2="974.0401" gradientTransform="matrix(1 0 0 1 -296.1884 -683.5983)">
	<stop  offset="1.200000e-03" style="stop-color:#8000FF"/>
	<stop  offset="1" style="stop-color:#EC2027"/>
</linearGradient>
<path class="st7" d="M442.4,267.3c-0.1,3.4-3,6-6.4,5.9s-6-3-5.9-6.4c0.1-3.3,2.8-5.9,6.1-5.9c1.7,0,3.2,0.8,4.2,2.1v-7.2h2
	L442.4,267.3L442.4,267.3z M436.3,262.8c-2.5,0.2-4.4,2.5-4.1,5c0.2,2.2,1.9,3.9,4.1,4.1c2.4-0.1,4.2-2.2,4.1-4.6
	C440.5,264.9,438.7,262.9,436.3,262.8L436.3,262.8z"/>
<linearGradient id="SVGID_7_" gradientUnits="userSpaceOnUse" x1="742.4884" y1="928.1292" x2="742.4884" y2="974.0401" gradientTransform="matrix(1 0 0 1 -296.1884 -683.5983)">
	<stop  offset="1.200000e-03" style="stop-color:#8000FF"/>
	<stop  offset="1" style="stop-color:#EC2027"/>
</linearGradient>
<path class="st8" d="M445.3,259.4v-1.5c0-0.6,0.5-1,1-1s1,0.4,1,1v1.5H445.3z M447.3,273.5h-2v-12.3h2V273.5z"/>
<linearGradient id="SVGID_8_" gradientUnits="userSpaceOnUse" x1="751.887" y1="928.1292" x2="751.887" y2="974.0401" gradientTransform="matrix(1 0 0 1 -296.1884 -683.5983)">
	<stop  offset="1.200000e-03" style="stop-color:#8000FF"/>
	<stop  offset="1" style="stop-color:#EC2027"/>
</linearGradient>
<path class="st9" d="M462.2,272.9c0,3.9-2.5,6.6-6.3,6.6c-2.9,0-5.1-1.5-5.8-4h2.1c0.7,1.4,2.1,2.2,3.6,2.1c3.2,0,4.3-2.4,4.3-4.6
	v-1.2c-1,1.3-2.5,2.1-4.2,2c-3.6,0.1-6.6-2.6-6.7-6.2s2.6-6.6,6.2-6.7s6.6,2.6,6.7,6.2c0,0.1,0,0.2,0,0.3L462.2,272.9L462.2,272.9z
	 M456.1,262.8c-2.5-0.2-4.8,1.6-5,4.1s1.6,4.8,4.1,5s4.8-1.6,5-4.1c0-0.1,0-0.3,0-0.4C460.3,265,458.5,262.9,456.1,262.8z"/>
<linearGradient id="SVGID_9_" gradientUnits="userSpaceOnUse" x1="762.2384" y1="928.1292" x2="762.2384" y2="974.0401" gradientTransform="matrix(1 0 0 1 -296.1884 -683.5983)">
	<stop  offset="1.200000e-03" style="stop-color:#8000FF"/>
	<stop  offset="1" style="stop-color:#EC2027"/>
</linearGradient>
<path class="st10" d="M465,259.4v-1.5c0-0.6,0.5-1,1-1s1,0.4,1,1v1.5H465z M467.1,273.5h-2v-12.3h2V273.5z"/>
<linearGradient id="SVGID_10_" gradientUnits="userSpaceOnUse" x1="768.8884" y1="928.1292" x2="768.8884" y2="974.0401" gradientTransform="matrix(1 0 0 1 -296.1884 -683.5983)">
	<stop  offset="1.200000e-03" style="stop-color:#8000FF"/>
	<stop  offset="1" style="stop-color:#EC2027"/>
</linearGradient>
<path class="st11" d="M475.1,273.5c-2.9,0.3-4.8-1.4-4.8-4.5v-10.4h2v2.6h2.8v1.9h-2.8v5.9c0,2.2,1.3,2.7,2.8,2.6V273.5z"/>
<linearGradient id="SVGID_11_" gradientUnits="userSpaceOnUse" x1="778.537" y1="928.1292" x2="778.537" y2="974.0401" gradientTransform="matrix(1 0 0 1 -296.1884 -683.5983)">
	<stop  offset="1.200000e-03" style="stop-color:#8000FF"/>
	<stop  offset="1" style="stop-color:#EC2027"/>
</linearGradient>
<path class="st12" d="M488.8,273.5h-2v-1.9c-1,1.4-2.5,2.2-4.2,2.2c-3.6,0.1-6.6-2.6-6.7-6.2s2.6-6.6,6.2-6.7s6.6,2.6,6.7,6.2
	c0,0.1,0,0.2,0,0.3V273.5z M482.6,262.8c-2.5-0.2-4.8,1.6-5,4.1s1.6,4.8,4.1,5s4.8-1.6,5-4.1c0-0.1,0-0.3,0-0.4
	C486.9,265,485,262.9,482.6,262.8z"/>
<linearGradient id="SVGID_12_" gradientUnits="userSpaceOnUse" x1="790.2384" y1="928.1292" x2="790.2384" y2="974.0401" gradientTransform="matrix(1 0 0 1 -296.1884 -683.5983)">
	<stop  offset="1.200000e-03" style="stop-color:#8000FF"/>
	<stop  offset="1" style="stop-color:#EC2027"/>
</linearGradient>
<path class="st13" d="M491.6,255.8h2V269c0,2.2,1.3,2.7,2.9,2.6v1.9c-2.9,0.3-4.9-1.4-4.9-4.5V255.8z"/>
<path class="st1" d="M522.1,269.1c0.1,2.5-1.9,4.6-4.4,4.7c-0.1,0-0.2,0-0.3,0c-1.5,0.1-2.9-0.7-3.7-2c-0.7,1.3-2.2,2.1-3.7,2
	c-2.5,0.1-4.6-1.9-4.7-4.4c0-0.1,0-0.2,0-0.3v-7.9h2v7.9c0,1.5,1.1,2.7,2.6,2.7s2.7-1.1,2.7-2.6v-0.1v-7.9h2v7.9
	c0,1.5,1.1,2.7,2.6,2.7s2.7-1.1,2.7-2.6v-0.1v-7.9h2L522.1,269.1z"/>
<path class="st1" d="M525.5,259.4v-1.5c0-0.6,0.5-1,1-1s1,0.4,1,1v1.5H525.5z M527.5,273.5h-2v-12.3h2V273.5z"/>
<path class="st1" d="M535.5,273.5c-2.9,0.3-4.8-1.4-4.8-4.5v-10.4h2v2.6h2.8v1.9h-2.8v5.9c0,2.2,1.3,2.7,2.8,2.6V273.5z"/>
<path class="st1" d="M548,273.5h-2V266c0-1.9-1-3.3-3-3.3c-1.7,0-3.2,1.3-3.2,3.1v0.1v7.5h-2v-17.7h2v6.7c0.9-1,2.2-1.6,3.5-1.5
	c3,0,4.7,2.1,4.7,5.2V273.5z"/>
<linearGradient id="SVGID_13_" gradientUnits="userSpaceOnUse" x1="857.3883" y1="928.1292" x2="857.3883" y2="974.0401" gradientTransform="matrix(1 0 0 1 -296.1884 -683.5983)">
	<stop  offset="1.200000e-03" style="stop-color:#8000FF"/>
	<stop  offset="1" style="stop-color:#EC2027"/>
</linearGradient>
<path class="st14" d="M565.6,263.2c-0.9-0.1-1.8,0.1-2.5,0.7c-0.5,0.5-0.9,1.3-0.9,3.5c0,2.4-0.4,3.8-1.5,4.9
	c-1.1,0.9-2.5,1.4-3.9,1.3v-2c0.9,0.1,1.8-0.2,2.5-0.7c0.5-0.5,0.9-1.3,0.9-3.4c0-2.4,0.4-3.9,1.5-4.9c1.1-0.9,2.5-1.4,3.9-1.2
	V263.2z"/>
<linearGradient id="SVGID_14_" gradientUnits="userSpaceOnUse" x1="868.6833" y1="928.1292" x2="868.6833" y2="974.0401" gradientTransform="matrix(1 0 0 1 -296.1884 -683.5983)">
	<stop  offset="1.200000e-03" style="stop-color:#8000FF"/>
	<stop  offset="1" style="stop-color:#EC2027"/>
</linearGradient>
<path class="st15" d="M572.7,273.8c-3.5-0.2-6.3-3.2-6.1-6.7c0.1-3.3,2.8-6,6.1-6.1c2.6-0.1,4.9,1.6,5.7,4.1h-2.2
	c-0.7-1.3-2-2.2-3.5-2.2c-2.4,0.1-4.2,2.1-4.1,4.5c-0.1,2.4,1.7,4.4,4.1,4.5c1.5,0,2.9-0.8,3.5-2.2h2.2
	C577.6,272.2,575.3,273.8,572.7,273.8z"/>
<linearGradient id="SVGID_15_" gradientUnits="userSpaceOnUse" x1="878.0384" y1="928.1292" x2="878.0384" y2="974.0401" gradientTransform="matrix(1 0 0 1 -296.1884 -683.5983)">
	<stop  offset="1.200000e-03" style="stop-color:#8000FF"/>
	<stop  offset="1" style="stop-color:#EC2027"/>
</linearGradient>
<path class="st16" d="M580.8,259.4v-1.5c0-0.6,0.5-1,1-1s1,0.4,1,1v1.5H580.8z M582.9,273.5h-2v-12.3h2V273.5z"/>
<linearGradient id="SVGID_16_" gradientUnits="userSpaceOnUse" x1="887.7871" y1="928.1292" x2="887.7871" y2="974.0401" gradientTransform="matrix(1 0 0 1 -296.1884 -683.5983)">
	<stop  offset="1.200000e-03" style="stop-color:#8000FF"/>
	<stop  offset="1" style="stop-color:#EC2027"/>
</linearGradient>
<path class="st17" d="M597.6,269.7c-0.8,2.5-3.2,4.2-5.8,4.1c-3.5-0.1-6.4-3-6.3-6.6c0.1-3.4,2.8-6.1,6.2-6.3c2.9,0.1,5.4,2.2,6,5
	l-9.4,4c0.8,1.2,2.1,1.9,3.5,1.9c1.6,0.1,3-0.8,3.7-2.2L597.6,269.7z M587.6,268.2l7.6-3.2c-0.7-1.3-2-2.1-3.5-2.2
	c-2.4,0.1-4.2,2.1-4.1,4.5C587.5,267.6,587.5,267.9,587.6,268.2L587.6,268.2z"/>
<linearGradient id="SVGID_17_" gradientUnits="userSpaceOnUse" x1="901.2883" y1="928.1292" x2="901.2883" y2="974.0401" gradientTransform="matrix(1 0 0 1 -296.1884 -683.5983)">
	<stop  offset="1.200000e-03" style="stop-color:#8000FF"/>
	<stop  offset="1" style="stop-color:#EC2027"/>
</linearGradient>
<path class="st18" d="M602,273.5h-2V266c0-2.8,2.3-5.1,5.1-5.1s5.1,2.3,5.1,5.1l0,0v7.4h-2V266c0-1.7-1.3-3.1-3-3.2
	c-1.7,0-3.1,1.3-3.2,3v0.1L602,273.5z"/>
<linearGradient id="SVGID_18_" gradientUnits="userSpaceOnUse" x1="914.7833" y1="928.1292" x2="914.7833" y2="974.0401" gradientTransform="matrix(1 0 0 1 -296.1884 -683.5983)">
	<stop  offset="1.200000e-03" style="stop-color:#8000FF"/>
	<stop  offset="1" style="stop-color:#EC2027"/>
</linearGradient>
<path class="st19" d="M618.8,273.8c-3.5-0.2-6.3-3.2-6.1-6.7c0.1-3.3,2.8-6,6.1-6.1c2.6-0.1,4.9,1.6,5.7,4.1h-2.2
	c-0.7-1.3-2-2.2-3.5-2.2c-2.4,0.1-4.2,2.1-4.1,4.5c-0.1,2.4,1.7,4.4,4.1,4.5c1.5,0,2.9-0.8,3.5-2.2h2.2
	C623.7,272.2,621.4,273.8,618.8,273.8z"/>
<linearGradient id="SVGID_19_" gradientUnits="userSpaceOnUse" x1="928.3871" y1="928.1292" x2="928.3871" y2="974.0401" gradientTransform="matrix(1 0 0 1 -296.1884 -683.5983)">
	<stop  offset="1.200000e-03" style="stop-color:#8000FF"/>
	<stop  offset="1" style="stop-color:#EC2027"/>
</linearGradient>
<path class="st20" d="M638.2,269.7c-0.8,2.5-3.2,4.2-5.8,4.1c-3.5-0.1-6.4-3-6.3-6.6c0.1-3.4,2.8-6.1,6.2-6.3c2.9,0.1,5.4,2.2,6,5
	l-9.4,4c0.8,1.2,2.1,1.9,3.5,1.9c1.6,0.1,3-0.8,3.7-2.2L638.2,269.7z M628.1,268.2l7.6-3.2c-0.7-1.3-2-2.1-3.5-2.2
	c-2.4,0.1-4.2,2.1-4.1,4.5C628.1,267.6,628.1,267.9,628.1,268.2L628.1,268.2z"/>
</svg>
