<?xml version="1.0" encoding="utf-8"?>
<!-- Generator: Adobe Illustrator 24.1.0, SVG Export Plug-In . SVG Version: 6.00 Build 0)  -->
<svg version="1.1" id="Layer_1" xmlns="http://www.w3.org/2000/svg" xmlns:xlink="http://www.w3.org/1999/xlink" x="0px" y="0px"
	 viewBox="0 0 555.6 368" style="enable-background:new 0 0 555.6 368;" xml:space="preserve">
<style type="text/css">
	.st0{fill:#FFFFFF;}
	.st1{fill:#00A7E1;}
	.st2{fill:#00A7E1;stroke:#00A7E1;stroke-width:0.5;stroke-miterlimit:10;}
	.st3{fill:#2D358E;}
	.st4{fill:url(#SVGID_1_);}
	.st5{fill:url(#SVGID_2_);}
	.st6{fill:url(#SVGID_3_);}
	.st7{fill:#343896;}
</style>
<rect y="31" class="st0" width="554.8" height="299"/>
<path class="st1" d="M279.2,314.3H273c-0.5,0-0.9-0.4-0.9-0.9V300c0-0.5,0.4-0.9,0.9-0.9h5.6c2.2,0,5.6,0.7,5.6,4.1
	c0.1,1.2-0.7,2.4-1.8,2.8c1.7,0.4,2.9,1.9,2.9,3.7C285.3,313.3,282.2,314.3,279.2,314.3z M273.9,300.7v4.8h4.8c2,0,3.8-0.5,3.8-2.3
	c0-2-2.4-2.6-3.9-2.6L273.9,300.7z M273.9,312.7h5.3c2.1,0,4.4-0.5,4.4-2.9c0-1.9-1.6-2.7-3.7-2.7h-6L273.9,312.7L273.9,312.7z"/>
<path class="st1" d="M289.8,304.2c0.6-1.3,2.1-2.1,3.5-2c0.4-0.1,0.8,0.2,0.9,0.7c0,0.1,0,0.1,0,0.2c0,0.5-0.4,0.8-0.9,0.8
	c-2.4,0-3.5,1.9-3.5,4.3v5.4c0,0.5-0.4,0.8-0.8,0.8l0,0c-0.4,0-0.8-0.3-0.9-0.7v-0.1V303c0-0.5,0.4-0.8,0.9-0.8
	c0.4,0,0.8,0.4,0.8,0.8V304.2z"/>
<path class="st1" d="M297.7,300.4c0,0.5-0.5,0.9-1,0.8c-0.4,0-0.8-0.4-0.8-0.8v-1.1c0-0.5,0.5-0.9,1-0.8c0.4,0,0.8,0.4,0.8,0.8
	V300.4z M296,303c0-1,1.7-1,1.7,0v10.7c0,1-1.7,1-1.7,0V303z"/>
<path class="st1" d="M310.8,307.3c0-2-1.6-3.7-3.6-3.7l0,0c-2.5,0-4.4,2-4.5,4.5v5.5c0,0.4-0.3,0.8-0.7,0.8c-0.1,0-0.1,0-0.2,0
	c-0.4,0.1-0.8-0.3-0.9-0.7v-0.1V303c0-0.5,0.4-0.8,0.9-0.8s0.8,0.4,0.8,0.8v1.5c0.9-1.6,2.7-2.6,4.5-2.5c2.9-0.1,5.3,2.1,5.4,5
	c0,0.1,0,0.2,0,0.3v6.3c0,0.4-0.3,0.8-0.7,0.8c-0.1,0-0.1,0-0.2,0c-0.4,0-0.8-0.3-0.9-0.7v-0.1L310.8,307.3z"/>
<path class="st1" d="M327.2,313.7c0,3.4-2.6,5.2-5.9,5.2c-1.7,0.1-3.3-0.5-4.5-1.6c-0.4-0.3-0.4-0.8-0.1-1.2s0.8-0.4,1.2-0.1
	l0.1,0.1c0.9,0.8,2.1,1.2,3.4,1.2c2.2,0,4.2-1.1,4.2-3.5v-1.3c-0.8,1.3-2.2,2.1-3.8,2.1c-0.9,0-1.7-0.1-2.6-0.5
	c-2.2-0.9-3.6-3.1-3.6-5.5c-0.2-2.7,1.3-5.1,3.8-6.2c0.7-0.3,1.5-0.4,2.2-0.4c1.5-0.1,3,0.6,3.9,1.8V303c0-0.4,0.3-0.8,0.7-0.9h0.1
	c0.4,0,0.8,0.3,0.9,0.7v0.1L327.2,313.7z M319,304.5L319,304.5c-1.2,1-1.8,2.5-1.7,4c0,0.6,0.1,1.2,0.4,1.8c0.7,1.6,2.3,2.6,4.1,2.5
	l0,0c2,0,3.7-1.6,3.8-3.6v-1.9c0.1-1.4-0.7-2.7-2-3.2C322,303.4,320.3,303.6,319,304.5z"/>
<path class="st1" d="M332.4,300.4c0,0.5-0.5,0.9-1,0.8c-0.4,0-0.8-0.4-0.8-0.8v-1.1c0-0.5,0.5-0.9,1-0.8c0.4,0,0.8,0.4,0.8,0.8
	V300.4z M330.7,303c0-1,1.7-1,1.7,0v10.7c0,1-1.7,1-1.7,0V303z"/>
<path class="st1" d="M345.5,307.3c0-2-1.6-3.7-3.6-3.7l0,0c-2.5,0-4.4,2-4.5,4.5v5.5c0,0.4-0.3,0.8-0.7,0.8c-0.1,0-0.1,0-0.2,0
	c-0.4,0.1-0.8-0.3-0.9-0.7v-0.1V303c0-0.5,0.4-0.8,0.9-0.8s0.8,0.4,0.8,0.8v1.5c0.9-1.6,2.7-2.6,4.5-2.5c2.9-0.1,5.3,2.1,5.4,5
	c0,0.1,0,0.2,0,0.3v6.3c0,0.4-0.3,0.8-0.7,0.8c-0.1,0-0.1,0-0.2,0c-0.4,0-0.8-0.3-0.9-0.7v-0.1L345.5,307.3z"/>
<path class="st1" d="M361.9,313.7c0,3.4-2.6,5.2-5.9,5.2c-1.7,0.1-3.3-0.5-4.5-1.6c-0.4-0.3-0.4-0.8-0.1-1.2s0.8-0.4,1.2-0.1
	l0.1,0.1c0.9,0.8,2.1,1.2,3.4,1.2c2.2,0,4.2-1.1,4.2-3.5v-1.3c-0.8,1.3-2.2,2.1-3.8,2.1c-0.9,0-1.7-0.1-2.6-0.5
	c-2.2-0.9-3.6-3.1-3.6-5.5c-0.2-2.7,1.3-5.1,3.8-6.2c0.7-0.3,1.5-0.4,2.2-0.4c1.5-0.1,3,0.6,3.9,1.8V303c0-0.4,0.3-0.8,0.7-0.9h0.1
	c0.4,0,0.8,0.3,0.9,0.7v0.1L361.9,313.7z M353.7,304.5L353.7,304.5c-1.2,1-1.8,2.5-1.7,4c0,0.6,0.1,1.2,0.4,1.8
	c0.7,1.6,2.3,2.6,4.1,2.5l0,0c2,0,3.7-1.6,3.8-3.6v-1.9c0.1-1.4-0.7-2.7-2-3.2C356.7,303.4,355,303.6,353.7,304.5z"/>
<path class="st1" d="M372.7,310.5c0.6,2,3.2,2.4,5.1,2.4c2,0,5.1-0.6,5.1-3c0-2.1-2.5-2.2-5.1-2.4c-3.3-0.3-6.8-0.6-6.8-4.1
	c0-3.1,3.6-4.5,6.5-4.5c2.5,0,5.6,0.6,6.6,3.3c0.4,0.9-1.3,1.4-1.6,0.6c-0.7-1.8-3.2-2.1-5-2.1c-1.6,0-4.7,0.6-4.7,2.8
	c0,2.1,2.4,2.3,5.1,2.5c3.2,0.3,6.7,0.5,6.7,4c0,3.6-4.1,4.7-7,4.7c-2.4,0-6.1-0.8-6.9-3.7C370.7,309.9,372.5,309.5,372.7,310.5z"/>
<path class="st1" d="M392.7,303.5c-2.6,0-4.3,2.1-4.3,4.8c0,1.1,0.3,2.2,1,3.1c0.8,1,2.1,1.6,3.4,1.6c1.3,0.1,2.6-0.5,3.5-1.6
	c0.3-0.3,0.8-0.4,1.1-0.1s0.4,0.8,0.1,1.1c0,0,0,0,0,0.1c-1.2,1.4-2.9,2.1-4.7,2.1c-1.8,0-3.6-0.8-4.8-2.1c-1-1.3-1.5-3-1.4-4.6
	c0-3.3,2.7-5.9,6-5.9c0.1,0,0.2,0,0.2,0c1.7,0,3.3,0.7,4.4,2c0.7,0.8-0.6,1.8-1.3,1C395.2,304,393.9,303.4,392.7,303.5z"/>
<path class="st1" d="M402.2,300.4c0,0.5-0.5,0.9-1,0.8c-0.4,0-0.8-0.4-0.8-0.8v-1.1c0-0.5,0.5-0.9,1-0.8c0.4,0,0.8,0.4,0.8,0.8
	V300.4z M400.4,303c0-1,1.7-1,1.7,0v10.7c0,1-1.7,1-1.7,0V303z"/>
<path class="st1" d="M412.6,302.2c2.7,0.7,4.5,3.2,4.4,5.9l0,0c0,0.5-0.2,1.1-1.2,1.1h-9.4c0.3,2.1,2.2,3.6,4.3,3.6
	c1.1,0,2.2-0.3,3.2-1c0.8-0.8,2.1,0.2,1.1,1.2c-1.2,1-2.7,1.5-4.2,1.4c-1.8,0.1-3.6-0.7-4.8-2.1c-2.6-3.4-1.4-8.8,3-10
	C410.2,301.9,411.4,301.9,412.6,302.2L412.6,302.2z M406.4,307.8h8.9c-0.1-1.9-1.4-3.5-3.2-4l0,0c-0.8-0.2-1.7-0.2-2.6,0
	C407.8,304.3,406.5,305.9,406.4,307.8L406.4,307.8z"/>
<path class="st1" d="M429.9,307.3c0-2-1.6-3.7-3.6-3.7l0,0c-2.5,0-4.4,2-4.5,4.5v5.5c0,0.4-0.3,0.8-0.7,0.8c-0.1,0-0.1,0-0.2,0
	c-0.4,0.1-0.8-0.3-0.9-0.7v-0.1V303c0-0.5,0.4-0.8,0.9-0.8s0.8,0.4,0.8,0.8v1.5c0.9-1.6,2.7-2.6,4.5-2.5c2.9-0.1,5.3,2.1,5.4,5
	c0,0.1,0,0.2,0,0.3v6.3c0,0.4-0.3,0.8-0.7,0.8c-0.1,0-0.1,0-0.2,0c-0.4,0-0.8-0.3-0.9-0.7v-0.1L429.9,307.3z"/>
<path class="st1" d="M440.7,303.5c-2.6,0-4.3,2.1-4.3,4.8c0,1.1,0.3,2.2,1,3.1c0.8,1,2.1,1.6,3.4,1.6c1.3,0.1,2.6-0.5,3.5-1.6
	c0.3-0.3,0.8-0.4,1.1-0.1s0.4,0.8,0.1,1.1c0,0,0,0,0,0.1c-1.2,1.4-2.9,2.1-4.7,2.1c-1.8,0-3.6-0.8-4.8-2.1c-1-1.3-1.5-3-1.4-4.6
	c0-3.3,2.7-5.9,6-5.9c0.1,0,0.2,0,0.2,0c1.7,0,3.3,0.7,4.4,2c0.7,0.8-0.6,1.8-1.3,1C443.1,304,441.9,303.4,440.7,303.5z"/>
<path class="st1" d="M455.3,302.2c2.7,0.7,4.5,3.2,4.4,5.9l0,0c0,0.5-0.2,1.1-1.2,1.1h-9.4c0.3,2.1,2.2,3.6,4.3,3.6
	c1.1,0,2.2-0.3,3.2-1c0.8-0.8,2.1,0.2,1.1,1.2c-1.2,1-2.7,1.5-4.2,1.4c-1.8,0.1-3.6-0.7-4.8-2.1c-2.6-3.4-1.4-8.8,3-10
	C452.9,301.9,454.1,301.9,455.3,302.2L455.3,302.2z M449.1,307.8h8.9c-0.1-1.9-1.4-3.5-3.2-4l0,0c-0.8-0.2-1.7-0.2-2.6,0
	C450.4,304.3,449.2,305.9,449.1,307.8L449.1,307.8z"/>
<path class="st1" d="M474.4,302.2c0.4,0,0.8,0.3,0.8,0.7c0,0.4-0.3,0.8-0.7,0.8h-0.1h-2.6v6.4c0,1.4,0.2,2.8,1.8,2.8
	c0.4,0,0.8-0.1,1.1-0.3c0.4-0.2,0.9-0.1,1.1,0.2c0.2,0.4,0.1,0.9-0.2,1.1c-0.1,0-0.1,0.1-0.2,0.1c-0.6,0.3-1.2,0.4-1.8,0.4
	c-2.8,0-3.5-2.1-3.5-4.3v-6.4h-1.6c-0.4,0-0.8-0.3-0.8-0.7c0-0.4,0.3-0.8,0.7-0.8h0.1h1.6v-2.7c0-0.5,0.4-0.9,0.9-0.9
	s0.9,0.4,0.9,0.9v2.7L474.4,302.2L474.4,302.2z"/>
<path class="st1" d="M478.5,312.3c-1.1-1.3-1.6-2.9-1.4-4.6c0.1-2.6,1.9-4.8,4.4-5.6c1.2-0.3,2.4-0.3,3.6,0c2.5,0.7,4.3,3,4.4,5.6
	c0.1,1.6-0.4,3.3-1.4,4.6c-2.3,2.6-6.3,2.9-8.9,0.5C478.9,312.7,478.7,312.5,478.5,312.3z M483.3,303.6c-0.4,0-0.8,0.1-1.3,0.2
	c-2,0.6-3.3,2.5-3.2,4.5c0,1.1,0.4,2.2,1,3c0.8,1,2.1,1.6,3.4,1.6s2.5-0.6,3.4-1.6c0.7-0.8,1-1.9,1-3c0.1-2.1-1.2-4-3.2-4.6
	C484.1,303.7,483.7,303.6,483.3,303.6z"/>
<path class="st2" d="M501.3,314.3c-0.6,0-0.9-0.3-0.9-0.9v-13.6c0-0.5,0.4-0.9,0.9-0.8c0.5,0,0.8,0.4,0.8,0.8v12.9h8.9
	c0.4-0.1,0.8,0.2,0.9,0.7c0.1,0.4-0.2,0.8-0.7,0.9c-0.1,0-0.2,0-0.2,0H501.3z"/>
<path class="st2" d="M513.8,299.5c0-0.5,0.4-0.9,0.9-0.9s0.9,0.4,0.9,0.9v14.2c0,0.5-0.4,0.9-0.9,0.8c-0.5,0-0.8-0.4-0.8-0.8v-14.2
	H513.8z"/>
<path class="st2" d="M519.2,300.2c0-0.6,0.5-1,1-1h9.8c0.4,0,0.7,0.3,0.7,0.7c0,0.4-0.3,0.7-0.7,0.7h-9v5.9h8.7
	c0.4,0,0.7,0.4,0.7,0.8s-0.3,0.7-0.7,0.7H521v5.5c0,0.5-0.3,0.9-0.8,0.9s-0.9-0.3-0.9-0.8c0,0,0,0,0-0.1L519.2,300.2z"/>
<path class="st2" d="M535.5,312.7h9.4c0.4,0,0.8,0.3,0.8,0.8s-0.3,0.8-0.8,0.8l0,0h-10c-0.6,0-1.1-0.4-1.1-1c0,0,0,0,0-0.1v-13
	c0-0.6,0.5-1,1-1c0,0,0,0,0.1,0h10c0.4,0,0.8,0.4,0.7,0.8c0,0.4-0.4,0.7-0.8,0.7h-9.4v5.3h8.9c0.4,0,0.7,0.4,0.7,0.8
	s-0.3,0.7-0.7,0.7h-8.9L535.5,312.7L535.5,312.7z"/>
<path class="st1" d="M549.5,313.3c0,0.5-0.4,1-0.9,1h-0.1c-0.5,0-1-0.4-1.1-0.9c0-0.5,0.4-1,0.9-1.1h0.1c0.5,0,1,0.4,1,0.9
	C549.5,313.2,549.5,313.3,549.5,313.3z"/>
<path class="st1" d="M280.5,204.8v22.9c0,6.5-10.3,6.4-10.3,0.1V146c0-2.8,2.3-5,5.1-5c0.1,0,0.1,0,0.2,0h31
	c24.7,0,36.3,16.3,36.3,32.7c0,17-11.7,31.1-36.7,31.1H280.5z M280.5,195.5H306c19,0,26.8-11.1,26.6-21.9
	c-0.1-11.6-9.4-23.4-26-23.4h-26.1V195.5z"/>
<path class="st1" d="M365.6,171c4.6-9.5,13.1-12.1,21.3-12.1c3.3,0,5.4,1.7,5.4,5c0,3.1-2.1,4.8-5.4,4.8c-14.7,0-21,11.7-21,26v32.1
	c0,2.8-2.2,5-5,5h-0.1c-3.1,0-5.3-2-5.3-5v-62.9c0-6.3,10.1-6.8,10.1,0V171z"/>
<path class="st1" d="M401.4,163.9c0-6.1,10.4-6.3,10.4-0.1v64.1c0,6.2-10.4,6.1-10.4,0V163.9z"/>
<path class="st1" d="M486.5,189.7c0.1-12.2-9.7-22.1-21.9-22.2c-0.1,0-0.2,0-0.2,0c-13.9,0-26.8,11.4-26.8,26.8v32.9
	c0,3.1-1.9,5-5.1,5c-3.3,0-5.4-1.8-5.4-5v-63.6c0-6.5,10.3-6.7,10.3,0.1v8.8c5.1-10.4,16.1-14.8,27.3-14.8
	c16.6,0,32.4,11.4,32.4,31.8v37.6c0,3.1-1.9,5-5.1,5c-3.1,0-5.3-1.8-5.3-5L486.5,189.7z"/>
<path class="st1" d="M546.1,159.2c2.5-0.2,4.6,1.7,4.8,4.1c0.2,2.5-1.7,4.6-4.1,4.8c-0.2,0-0.4,0-0.7,0h-15.6v38.4
	c0,8.1,1.3,16.6,11,16.6c2.3,0,4.6-0.6,6.7-1.6c6-3.4,10.7,5,4.3,8.5c-3.6,2-7.1,2.4-11,2.4c-17.1,0-21.3-12.5-21.3-26V168h-9.4
	c-6.7,0-6.3-8.9,0-8.9h9.4v-16.5c0-6.8,10.3-6.7,10.3,0v16.5L546.1,159.2L546.1,159.2z"/>
<path class="st3" d="M270.2,261.3c-0.2-7.9,5.5-14.6,13.3-15.8c1.8-0.2,3.6-0.2,5.3,0c7.9,1.1,13.7,7.8,13.7,15.8
	c0,10.4-7.5,17-16.1,17C277.4,278.3,270.2,271.9,270.2,261.3z M274,261.5c0,8.2,5.4,13.4,12.5,13.4c6.8,0,12.3-5,12.3-13.4
	c0.2-6.2-4.3-11.6-10.4-12.6c-1.4-0.2-2.9-0.2-4.4,0C277.9,249.8,274,254.7,274,261.5L274,261.5z"/>
<path class="st3" d="M334.2,247.2c0-2.1,3.8-2.2,3.8,0v28.7c0,2.5-3.5,2.7-4.5,1l-18.8-25l0.4,6.9v17.6c0,2.4-3.8,2.5-3.8,0v-28.6
	c0-2.5,2.8-2.9,4.1-1l19.3,25.7l-0.5-7.5V247.2z"/>
<path class="st3" d="M370.3,276.5c-2.4,1.1-4.9,1.7-7.5,1.8c-9.1-0.1-16.4-7.6-16.3-16.7c0-0.1,0-0.1,0-0.2
	c-0.1-7.9,5.7-14.7,13.6-15.9c5.9-0.8,11,0.6,15,4.8c1.5,1.7-1.2,3.7-2.6,2.2c-3.4-3.6-7.4-4.1-11.8-3.6
	c-6.2,0.9-10.5,5.3-10.5,12.5c-0.2,7.2,5.5,13.2,12.7,13.4c0,0,0,0,0.1,0c2,0,4-0.5,5.8-1.4c1.6-0.8,3-2,4.1-3.3
	c1.2-1.7,4.2,0.1,2.9,2C374.3,274,372.4,275.5,370.3,276.5z"/>
<path class="st3" d="M381.8,261.3c-0.2-7.9,5.5-14.6,13.3-15.8c1.8-0.2,3.6-0.2,5.3,0c7.9,1.1,13.7,7.8,13.7,15.8
	c0,10.4-7.5,17-16.1,17C389,278.3,381.8,271.9,381.8,261.3z M385.6,261.5c0,8.2,5.4,13.4,12.5,13.4c6.8,0,12.3-5,12.3-13.4
	c0.2-6.2-4.3-11.6-10.4-12.6c-1.4-0.2-2.9-0.2-4.4,0C389.5,249.8,385.6,254.7,385.6,261.5z"/>
<path class="st3" d="M425.1,277.8c-1.4,0-1.9-0.6-1.9-1.8v-28.7c0-2.3,3.7-2.3,3.7,0v27.2h18.8c2.6,0,2.6,3.3,0,3.3H425.1z"/>
<path class="st3" d="M450.1,261.3c-0.2-7.9,5.5-14.6,13.3-15.8c1.8-0.2,3.6-0.2,5.3,0c7.9,1.1,13.7,7.8,13.7,15.8
	c0,10.4-7.5,17-16.1,17C457.3,278.3,450.1,271.9,450.1,261.3z M453.8,261.5c0,8.2,5.4,13.4,12.5,13.4c6.8,0,12.3-5,12.3-13.4
	c0.2-6.2-4.3-11.6-10.4-12.6c-1.4-0.2-2.9-0.2-4.4,0C457.8,249.8,453.8,254.7,453.8,261.5z"/>
<path class="st3" d="M518,272.2c-5.6,6.9-15.7,8-22.7,2.4c-3.9-3.2-6.1-8-6-13.1c0.1-7.8,5.7-14.5,13.4-16c0.9-0.1,1.7-0.2,2.6-0.1
	c4.4,0,9,1.5,11.8,4.7c1.5,1.7-1.1,4.1-2.6,2.3c-2.8-3.1-7.1-4.4-11.2-3.4c-6,1.3-10.3,6.6-10.3,12.7c0.1,7,5.8,12.9,12.3,13.1
	c3.8,0.1,7.4-1.6,9.8-4.5v-6.6h-9c-0.9,0-1.7-0.7-1.7-1.6s0.7-1.7,1.6-1.7c0,0,0,0,0.1,0h10.6c1.5,0,1.9,0.7,1.9,1.8v8.3
	C518.6,271.2,518.4,271.8,518,272.2z"/>
<path class="st3" d="M538.1,264.9l-12.7-16.7c-1.5-2,1.8-3.8,3.2-1.8l11.3,15.4l11.5-15.5c1.3-1.9,4.4-0.3,3,1.8l-12.6,16.8v11.2
	c0,1-0.8,1.8-1.8,1.8h-0.1c-1,0.1-1.8-0.6-1.9-1.6c0-0.1,0-0.2,0-0.2L538.1,264.9L538.1,264.9z"/>
<path class="st1" d="M420.6,141c0,7.7-6.2,14.1-14,14.1c-7.7,0-14.1-6.2-14.1-14c0-7.7,6.2-14.1,14-14.1c0,0,0,0,0.1,0
	C414.3,127,420.6,133.3,420.6,141z"/>
<linearGradient id="SVGID_1_" gradientUnits="userSpaceOnUse" x1="365.1606" y1="-166.6404" x2="430.8916" y2="-212.6656" gradientTransform="matrix(1 0 0 -1 -37.7309 -74.0813)">
	<stop  offset="3.030000e-02" style="stop-color:#343896"/>
	<stop  offset="1" style="stop-color:#00A7E1"/>
</linearGradient>
<path class="st4" d="M396.2,133.2l-65.8-42.1c-0.7,3.3-3.2,5.9-6.5,6.5l70.3,39.5C394.6,135.7,395.2,134.4,396.2,133.2z"/>
<linearGradient id="SVGID_2_" gradientUnits="userSpaceOnUse" x1="271.4066" y1="-198.7023" x2="310.2445" y2="-171.5077" gradientTransform="matrix(1 0 0 -1 -37.7309 -74.0813)">
	<stop  offset="0.2527" style="stop-color:#00A7E1"/>
	<stop  offset="0.8407" style="stop-color:#343896"/>
</linearGradient>
<path class="st5" d="M267.8,92.6l-37.5,27.2c2.5,3.4,4.9,6.7,7.3,10.2l36.5-30.2C271.9,97.5,269.7,95.1,267.8,92.6z"/>
<linearGradient id="SVGID_3_" gradientUnits="userSpaceOnUse" x1="77.314" y1="-187.5757" x2="96.5599" y2="-201.0517" gradientTransform="matrix(1 0 0 -1 -37.7309 -74.0813)">
	<stop  offset="0.1486" style="stop-color:#343896"/>
	<stop  offset="0.8656" style="stop-color:#00A7E1"/>
</linearGradient>
<path class="st6" d="M59.1,126.5c1.1-1.9,0-3.2,1.8-3.9l-19.2-11.5c-1,1.2-2.3,4-3.7,4.6l17.7,14.9C55.9,130.2,58.9,127,59.1,126.5z
	"/>
<path class="st1" d="M117,165.7c0-12.2-14.6-15.3-23.4-15.3H64.9v29H94C106.3,179.3,117,176.1,117,165.7z"/>
<path class="st1" d="M101.2,188.6H64.9v33.7h32c12.6,0,26.4-3.3,26.4-17.6C123.3,193.4,113.6,188.6,101.2,188.6z"/>
<path class="st1" d="M148.1,77.8C85.6,77.8,35,128.2,35,190.4S85.6,303,148.1,303s113.2-50.4,113.2-112.6S210.7,77.8,148.1,77.8z
	 M96.9,231.5H59.8c-2.9,0-5.2-2.3-5.3-5.1v-80.1c0.1-2.9,2.4-5.1,5.3-5.1h33.8c13.3,0,33.8,4.4,33.8,24.6c0,7.4-3.6,13.9-11,16.9
	c10.4,3.3,17.6,10.5,17.6,22C134,225.8,114.9,231.5,96.9,231.5z M157.5,227.2c-0.1,2.7-2.3,4.9-5.1,4.8l0,0c-3.1,0-5.3-2.1-5.3-4.8
	V142c0-2.7,2.1-4.8,5.3-4.8c2.7-0.1,5,2,5.1,4.8c0,0,0,0,0,0.1V227.2z M233.5,226.9v-9c-5.1,10.4-16.1,14.9-27.3,14.9
	c-16.6,0-32.4-11.4-32.4-31.8v-37.6c0-3.1,1.9-5,5.1-5c3.1,0,5.3,1.8,5.3,5V201c-0.1,12.2,9.7,22.1,21.9,22.2c0.1,0,0.2,0,0.2,0
	c13.8,0,26.8-11.4,26.8-26.8v-33c0-3.1,1.9-5,5.1-5s5.4,1.8,5.4,5V227C243.8,233.6,233.5,233.7,233.5,226.9L233.5,226.9z"/>
<path class="st7" d="M47.7,101.5c0.1,13.2-10.6,23.9-23.7,24S0.1,115,0,101.8s10.6-23.9,23.7-24h0.1C37,77.8,47.7,88.4,47.7,101.5
	L47.7,101.5z"/>
<path class="st7" d="M336.2,77.8c0.1,21-16.8,38.1-37.8,38.2s-38.1-16.8-38.2-37.8S277,40.1,298,40c0.1,0,0.1,0,0.2,0
	C319.1,39.9,336.1,56.9,336.2,77.8L336.2,77.8z"/>
</svg>
