<?xml version="1.0" encoding="utf-8"?>
<!-- Generator: Adobe Illustrator 23.1.1, SVG Export Plug-In . SVG Version: 6.00 Build 0)  -->
<svg version="1.1" id="Layer_1" xmlns="http://www.w3.org/2000/svg" xmlns:xlink="http://www.w3.org/1999/xlink" x="0px" y="0px"
	 viewBox="0 0 1110 624.4" style="enable-background:new 0 0 1110 624.4;" xml:space="preserve">
<style type="text/css">
	.st0{clip-path:url(#SVGID_2_);}
	.st1{opacity:0.5;fill:#E6E6E6;enable-background:new    ;}
	.st2{fill:#060545;}
	.st3{fill:#808184;}
	.st4{fill-rule:evenodd;clip-rule:evenodd;fill:#060545;}
	.st5{fill-rule:evenodd;clip-rule:evenodd;fill:url(#SVGID_3_);}
	.st6{fill-rule:evenodd;clip-rule:evenodd;fill:url(#SVGID_4_);}
	.st7{fill-rule:evenodd;clip-rule:evenodd;fill:url(#SVGID_5_);}
	.st8{fill-rule:evenodd;clip-rule:evenodd;fill:url(#SVGID_6_);}
	.st9{fill-rule:evenodd;clip-rule:evenodd;fill:url(#SVGID_7_);}
	.st10{fill-rule:evenodd;clip-rule:evenodd;fill:url(#SVGID_8_);}
	.st11{fill-rule:evenodd;clip-rule:evenodd;fill:url(#SVGID_9_);}
	.st12{fill-rule:evenodd;clip-rule:evenodd;fill:url(#SVGID_10_);}
	.st13{fill-rule:evenodd;clip-rule:evenodd;fill:url(#SVGID_11_);}
	.st14{fill-rule:evenodd;clip-rule:evenodd;fill:url(#SVGID_12_);}
	.st15{fill-rule:evenodd;clip-rule:evenodd;fill:url(#SVGID_13_);}
	.st16{fill-rule:evenodd;clip-rule:evenodd;fill:url(#SVGID_14_);}
	.st17{fill-rule:evenodd;clip-rule:evenodd;fill:url(#SVGID_15_);}
	.st18{fill-rule:evenodd;clip-rule:evenodd;fill:url(#SVGID_16_);}
	.st19{fill-rule:evenodd;clip-rule:evenodd;fill:url(#SVGID_17_);}
	.st20{fill-rule:evenodd;clip-rule:evenodd;fill:url(#SVGID_18_);}
	.st21{fill-rule:evenodd;clip-rule:evenodd;fill:url(#SVGID_19_);}
	.st22{fill-rule:evenodd;clip-rule:evenodd;fill:url(#SVGID_20_);}
	.st23{fill-rule:evenodd;clip-rule:evenodd;fill:url(#SVGID_21_);}
	.st24{fill-rule:evenodd;clip-rule:evenodd;fill:url(#SVGID_22_);}
</style>
<title>Brightly Website Looks</title>
<g>
	<g>
		<g>
			<g>
				<g>
					<defs>
						<rect id="SVGID_1_" x="-529.8" y="-1306.2" width="1917.5" height="1078.8"/>
					</defs>
					<clipPath id="SVGID_2_">
						<use xlink:href="#SVGID_1_"  style="overflow:visible;"/>
					</clipPath>
					<g class="st0">
						<path class="st1" d="M636.8-979.4h0.3l-0.4-0.4l262.4-116.9h1.9l-160.4-107l95.7-171.2l0.3-0.6L667-1446.1l41.6-161.2l0.2-0.6
							L455.9-1652l0.2-0.2h-0.6l102.9-268.2l1.3-1.3L370.6-1884l-53.3-188.8l-0.2-0.6l-169.9,70l-84.9-143.9l-210,147.6v-0.3
							l-0.4,0.4l-116.8-262.5v-1.9l-107,160.4l-171.8-96.1l-70.6,169.6l-161.2-41.7l-0.6-0.2l-44.1,252.9l-0.2-0.2v0.6l-268.1-103
							l-1.3-1.3l37.8,189.2l-188.8,53.3l-0.6,0.2l70,169.9l-143.9,84.9l147.6,210h-0.3l0.4,0.4l-262.4,116.9h-1.9l160.4,107.1
							l-96.1,171.8l169.6,70.6l-41.8,161.8l252.9,44l-0.2,0.2h0.6l-102.9,268.2l-1.3,1.3l189.1-37.8l53.5,189.4l169.9-70l84.9,143.9
							l209.9-147.6v0.3l0.4-0.4l116.8,262.5v1.9l107-160.4L12.1,4.7L12.7,5l70.6-169.6l161.2,41.6l0.6,0.2l44.1-252.9l0.2,0.2v-0.6
							l268.2,102.9l1.3,1.3l-37.8-189.1l188.8-53.3l0.7-0.2l-70-169.8l144-84.9L636.8-979.4z M555.7-276.8L289.4-543.2v-0.2
							l-0.3-0.1l-98.9-98.9l329.4,181.1l-0.4,0.7l0.7-0.2l37,185.1L555.7-276.8z M-372.1-2102l4.2,14.4l101.3,348.9l-346-290.3
							l77.1-23.4L-372.1-2102z M285.1-380.1l0.8,0.8l-145.5-74L-68.8-559.9l10.3-6.3l103.3-62.7l0.1,0.2l0.3-0.3l0.3,0.3
							C60.4-613.1,257.1-409.1,285.1-380.1L285.1-380.1z M-524.5-194.7l-152.6,2.1l112.7-255.7l56.9-129.1l123.7,380.7L-524.5-194.7
							z M-149.1-1985.7l-6.1,335.4c-13.3-28-104.9-221.2-109.6-230.9l115.9-115.9C-148.9-1995.1-148.9-1991.1-149.1-1985.7
							L-149.1-1985.7z M-148.3-1958.7l0.7-36.4l25.7,79l97.4,299.6l-22.6-5.5l-106.6-26.1l0.1-0.2h-0.4l0.1-3.8
							C-153.3-1684.5-149.8-1874.6-148.3-1958.7L-148.3-1958.7z M452.4-1648.8l-143.9,282.7l-36.7,72l-69-113.6l0.2-0.1l-0.3-0.3
							l246-237.2L452.4-1648.8z M622.2-979.7l9.8,0.2l-107.7,35.1l-270.7,88.1l31.6-129.2l0.2,0.1v-0.4h0.6L622.2-979.7z
							 M48.7-194.9l-313.1-262.6l194-101.5l0,0l0,0L81.5-167.4L48.7-194.9z M-289-549.5l22.8-0.8v91.4l-0.5-0.5l0.4,1.4l-0.4,0.2
							l0.5,0.4v141.3l-109.3-230.4L-289-549.5z M-383.4-199.7l-98-301.2l-25.1-77.3l129.2,31.6l-0.1,0.2h0.4
							c-0.3,16.5-4.7,259.5-6,330.8L-383.4-199.7z M-992.8-991.7l87.6-104.5l45.6,87.3l55.8,106.7l0,0l0,0l-391.5,151.8
							L-992.8-991.7z M-1159.6-1213.9l341.2,6.2c-28,13.3-221.1,104.9-230.9,109.6l-115.8-115.9L-1159.6-1213.9z M-581-1565.9
							l3.8,1.3l-74.6,80l-11.9-11.9l-52.7-52.7l0.7-0.1l-1.3-0.7l0.1-0.4l-0.6,0.1l-99.9-99.9L-581-1565.9z M-147.4-1998l293.4-4.1
							l-53.4,121.1l-116.3,263.7l-116.5-358.2L-147.4-1998z M663.4-1443.3l-289.2,344.9l-73.9-141.4l-27.5-52.6l0,0l0,0l391.5-151.8
							L663.4-1443.3z M-110-785.9l-53.4-53.4l96.5-17.7l34.3-6.3l14.2,42.9L43.9-632L-110-785.9z M-904-1096.7h299.2l-197.9,193.9
							l-29-55.3L-904-1096.7z M-595.5-1207.6h75.5l-55.7,80.8l-19.8,28.7l-106.2-53.4l-111.4-56H-595.5z M373.1-1097.9H73.9
							l99.7-97.6l98.3-96.2l100.8,192.8L373.1-1097.9z M120-710.9l-74.5,80l-18.6-56.2l-57.7-174.6l2.7,2.8l0,0l0.4,0.4l0.4,0.5v0.4
							h0.5l0.7,0.7l0,0l143.5,143.5L120-710.9z M-164.9-838.7l93.5,276.5l-193.1-197.2l38-30.3L-164.9-838.7z M-732.9-787.5
							l-69.2-114l276.6-93.6l-20.7,20.7L-732.9-787.5z M-266.2-1433.9v6.5l-0.2,0.3l0.2,0.1v326.4l-61.7-157.6l-37.7-96.4l0.4-0.1
							l-0.3-0.3l46.6-37.1L-266.2-1433.9z M282.2-987h-293l17.7-25.8l57.8-83.7l59.4,29.9L282.2-987z M-574.8-1562.6l207.2,207.3
							l-74.9,13.8l-55.9,10.3l-41.3-125.2L-574.8-1562.6z M-367.2-1354.2l-38.1,116.4l-92.3-92.4l55.7-10.2L-367.2-1354.2z
							 M-502.9-1335.7L-502.9-1335.7l-0.8-0.8v-0.4h-0.4l-0.7-0.7l0,0l0,0l-146.1-146.1l74.5-80l76.3,230.7L-502.9-1335.7z
							 M-404.2-1237l38-116.3l99.1,253.4l-39.9-40L-404.2-1237z M71.1-1097.9h-6.5l-0.3-0.2l-0.1,0.2h-326.4l253.9-99.4l0.1,0.4
							l0.3-0.3l39.8,49.9L71.1-1097.9z M-376.7-844.8l-0.3-0.2v0.5l-89.3-10.2l-36.7-4.2l3.9-3.9l0,0l0.7-0.7l0.4-0.1v-0.2
							l93.3-93.4l0,0l137.4-137.5l-89.4,204.4L-376.7-844.8z M-596-1096.7h0.4l0.3,0.2l0.1-0.2h326.4l-253.9,99.4l-0.1-0.4l-0.3,0.3
							l-79-99.3H-596L-596-1096.7z M-521.2-996.5l188.7-73.8l64.7-25.3l-13.3,13.3l-123.8,123.9l-67.4-22.1L-521.2-996.5z
							 M-13.3-987.6l-249.2-109.1h193.9l25.1,49.5L-13.3-987.6z M-32.6-1329.4l24,130.4l-116.3-38L-32.6-1329.4z M-125.9-1236.1
							l116.2,38l-5.4,2.1l-247.9,97.1l40.4-40.4L-125.9-1236.1z M-522.2-995.6l66.5,21.8l49.8,16.3l-92.3,92.3l-4-21.8L-522.2-995.6
							z M-266.2-1094.4v194l-109,55.3L-266.2-1094.4z M-11.9-987.6l-2.7-5.4l-52.6-103.7H63.3l-57.9,84L-11.9-987.6z M-27.9-1335.8
							l-3.9,3.9l0,0l-0.7,0.7l-0.4,0.1v0.2l-93.3,93.4l0,0l-0.2,0.2l-0.7,0.7l0,0l-107.5,107.4l-29.1,29.2l109.3-249.8l0.3,0.2v-0.5
							l2.3,0.3L-27.9-1335.8z M-265-1294.2l109-55.3l-38.2,87.3l-70.8,161.9V-1294.2z M-517.5-1207l87.6,38.3l161.6,70.7h-193.9
							l-51.3-101.1L-517.5-1207z M-603.4-1096.4l79.3,99.6l-15,5.1l-261.5,88.4l33.6-32.9L-603.4-1096.4z M-523.5-995.2l20.1,109.6
							l3.9,21.2L-615.9-826l-114.9,38L-624-894.8L-523.5-995.2z M-377.2-843.4l-129.4,261.7l2.9-276L-377.2-843.4z M-266.1-899.1
							v130.6l-109.1-75.2L-266.1-899.1z M-264.9-766.3v-1l0.2-0.3l-0.2-0.1V-901l0,0v-193l99.4,253.9l-0.4,0.1l0.3,0.3l-16.1,12.8
							l-83.2,66.2V-766.3L-264.9-766.3z M-164.8-841.5l-99.1-253.3l32.5,32.5l104.7,104.7l-10.7,32.8L-164.8-841.5z M-27-859.8
							l-3.9-3.9l0,0l-0.7-0.7l-0.1-0.4h-0.2l-93.4-93.4l0,0l-137.4-137.5l249.8,109.4l-0.2,0.3h0.5l-1.7,15.3L-27-859.8z
							 M269.6-1291.4L72.4-1098.2L33-1147.8l-39.9-50.1l276.2-93.5L269.6-1291.4z M199.7-1406.7l-67.7,67.8L-7.5-1199.4l-24-130.9
							l58.3-19.3L199.7-1406.7z M-30-1332.1l2.8-2.8l0,0l0.8-0.8h0.4v-0.4l0.7-0.7l0,0l0,0l37.9-37.9l108.3-108.3l80,74.5
							L-30-1332.1z M-27.2-1337l-74.7-8.5l-51.8-5.9l129.3-261.7l-1.3,127L-27.2-1337z M-155.8-1350.9l-109.1,55.3v-130.6l18.9,13
							L-155.8-1350.9z M-266.5-1435.3l-99.6,79.3l-9.7-28.7l-83.8-247.8l32.8,33.6L-266.5-1435.3z M-506-1337l-276.9-2.8l65.4-208.8
							l64.8,64.8l0,0L-506-1337z M-504-1335l3.9,3.9l0,0l0.7,0.7l0.1,0.4h0.2l94.1,94.1l136.1,136.2l0.6,0.6L-518-1208.4l0.2-0.3
							h-0.4l0.2-1.5L-504-1335z M-519-1207.1l7.9,15.5l47.5,93.6h-130.5l19.9-28.9L-519-1207.1z M-581.5-836.1l80.4-26.6l-2.7,2.7
							l0,0l-0.7,0.7l-0.2,0.2h-0.4v0.4l-0.7,0.7l0,0L-635-728.6l-16.8,16.8l-80-74.5L-581.5-836.1z M-377-841.3v293.5l-129.5-31.7
							L-377-841.3z M-163.8-840.5l9.7-29.7l28.3-86.6l92.3,92.4l-125.7,23.1L-163.8-840.5z M-25.9-859l14.4-126.5l261.7,129.4
							l-124.6-1.3L-25.9-859z M283.9-985.8l-31.6,129.6L-9.4-985.8H283.9z M271-1293.2l-129.8,44l-146.8,49.6L202-1407.1l28,46.1
							L271-1293.2z M185.6-1549.4L-3.8-1359.8l-22.1,22.1l1.6-152.7l1.3-124.4l54.1,17L185.6-1549.4z M-22.8-1616.1l65.7-149
							l103.7-235.2l39.5,449.8L-22.8-1616.1L-22.8-1616.1L-22.8-1616.1z M-155.2-1351.9l-91.1-62.8l-18.4-12.7l29.6-58.8l79.9-158.7
							L-155.2-1351.9z M-461.2-1633.9l93.6,276.7l-207.5-207.5l52.7-32L-461.2-1633.9z M-781-1338.6l276,2.9l-7.4,65.3l-7,61.1
							l-225.2-111.4L-781-1338.6z M-815-1207.2l10.6,5.3L-598-1098h-5.1l-0.2-0.3l-0.3,0.3h-207.6l-1.8-51.1L-815-1207.2z
							 M-640.2-721.7L-505-856.9l-2.9,277.1l-134-42l-74.7-23.5L-640.2-721.7z M-681.2-632.9l173,54.2l0,0l0,0l-169.4,384.3
							l-39.5-449.8L-681.2-632.9z M-375.8-549.6v-293.1l109.5,75.5l-54.9,109.1L-375.8-549.6z M-264.9-458.7V-758L-71-560
							l-191.5,100.1L-264.9-458.7z M186.4-646.1l-89.1-89.1L-25.1-857.8l151.9,1.6l125,1.3l-37.2,118.7L186.4-646.1z M284.1-987.4
							L67-1096.7h5.1l0.2,0.3l0.3-0.3h207.7l1.8,52.4L284.1-987.4z M-24.5-1615.3l-129.4,261.8v-293.5l106.2,26L-24.5-1615.3z
							 M-155.6-1647l-109.3,217.2v-5.1l0.3-0.2l-0.3-0.3v-207.7l9.5-0.3L-155.6-1647z M-266.1-1736v299.3l-193.8-197.9l56.7-29.7
							L-266.1-1736z M-462.1-1636.1l-356.7-181.6l204.6-210.5L-462.1-1636.1z M-462.2-1634.8l-61.5,37.4l-52.2,31.7l-0.1-0.2
							l-0.3,0.3l-240.6-249.7L-462.2-1634.8z M-784-1340.1L-784-1340.1L-784-1340.1l-384.2-169.5l449.7-39.5L-784-1340.1z
							 M-783.2-1338.4l185.3,91.7l76.4,37.8H-815l28.6-117.1L-783.2-1338.4z M-816.2-1207.3l2,58.3l1.8,50.9h-91.3l0.4-0.5l-1.4,0.4
							l-0.2-0.4l-0.4,0.5h-141.3L-816.2-1207.3z M-661.2-719l8.6,8l-64.6,64.6l-0.1-0.7l-0.7,1.3l-0.4-0.1l0.1,0.6l-99.9,99.9
							l85.6-240.2L-661.2-719z M-375.2-547.7l3.6-7.2L-266-764.8v3.9l0,0v1.2l-0.3,0.2l0.3,0.3v1l0,0v206.7l-54.6,1.9L-375.2-547.7z
							 M-69.6-560.8l-42.2-124.7l-51.4-151.9l172,172l35.5,35.5l-107.1,65L-69.6-560.8z M76-661.9l44.9-48.1l64.6,64.6l-0.7,0.1
							l1.3,0.7l-0.1,0.4h0.6l99.9,99.9L46.3-630L76-661.9z M637.3-685.2l-449.7,39.5l16.6-53.1L253-854.7l0,0l0,0l57.4,25.4
							L637.3-685.2z M285.3-987.4l-3-86.6l-0.8-22.8h91.3l-0.4,0.5l1.4-0.4l0.2,0.4l0.4-0.5h141.3L288.1-988.7
							C287-988.2,286-987.7,285.3-987.4z M201.7-1409.1l-80-74.6l64.6-64.6l0.1,0.7l0.7-1.3l0.4,0.1v-0.6l99.9-99.9L201.7-1409.1
							L201.7-1409.1z M-155.6-1648.2l-101.2,3.6l-8.1,0.3v-91.3l0.5,0.4l-0.4-1.4l0.4-0.2l-0.5-0.4v-141.3l107.9,227.5
							L-155.6-1648.2z M-266.6-1737.1l-137.4,71.8l-56.6,29.7l0,0l0,0l-151.8-391.6l241,202.2L-266.6-1737.1z M-785.4-1339.3
							l-380.6,123.8l-4.1-293.5L-785.4-1339.3z M-784.5-1338.3l-3.3,13.5l-28.3,115.7l-0.2-0.1v0.4l-336.6-6.2l-10-0.2
							L-784.5-1338.3z M-983.4-545.9l180.5-354.7l69,113.7l-0.2,0.1l0.3,0.3l-0.8,0.8C-753.5-767.7-958-570.4-983.4-545.9z
							 M-678.7-193l-221.7-118.5l182.2-331.4L-678.7-193z M-382-205l6.2-339.4c13.3,28,104.9,221.2,109.6,230.9l-115.8,116
							C-382.2-199-382.1-201.5-382-205L-382-205z M81.7-165.6l-240.5,73l-105.5-363.3L81.7-165.6z M638.7-684.1L520.2-462.3
							L188.8-644.6L638.7-684.1z M639.1-685.8l-86.3-38.1L254.4-855.4L554.5-953l80.5-26.2l1.9,135.9L639.1-685.8z M634.1-980.7
							h-2.4L287.2-987c28-13.3,221.1-105,230.9-109.6l113.9,113.9L634.1-980.7z M375.8-1098.5L666-1444.6l72.9,240.6l-303.8,88.2
							L375.8-1098.5z M665.2-1446l-392,152l68.8-135.3l112.8-221.6l194.9,189.6L665.2-1446z M444-1642.3l-240.6,232l85.8-240.8H453
							L444-1642.3z M187.2-1551.7l-39.5-450l221.7,118.6L222.6-1616L187.2-1551.7z M-578.4-1566.3l-240.8-85.8V-1816L-578.4-1566.3z
							 M-1051.2-1732.3l159.1,87.5l172.3,94.7l-449.9,39.6l110-205.9L-1051.2-1732.3z M-1270-990.7l247-71.8l116.1-33.8
							l-290.2,346.1l-34.7-114.4L-1270-990.7z M-1196.2-748.6l392-152l-181.6,356.7l-38-36.9L-1196.2-748.6z M-984-543.6l13.1-12.6
							l236.7-228.3c-9.2,25.8-66.6,186.8-82.1,230.4l-3.8,10.5L-984-543.6L-984-543.6z M83.2-166.5L83.2-166.5L-68.9-558.6l54.9,28
							l301.7,153.7l-136,139.9L83.2-166.5z M288.2-378.6c-1.6-1.7-5.2-5.4-10.2-10.6L47.4-628.3c29.1,10.4,230.5,82.2,240.7,85.8
							v163.9H288.2z M636.3-978l146.4,208.3l-142.4,83.9L636.3-978z M635.8-980.8L635-982v0.5l-115.2-115.2h376.3L635.8-980.8z
							 M518.6-1097.9L518.6-1097.9h-0.4H378.4l175.6-51l185.4-53.8l0.2,0.8l0.4-0.7l157,104.8L518.6-1097.9z M739.9-1205.1
							l-59.7-196.8l-13-42.9l167.7,69.8L739.9-1205.1z M707.3-1607.1L666-1447l-209.5-203.8L707.3-1607.1z M454.2-1652.4l-1.4-0.2
							l0.3,0.3H290.3l266.1-266.1L454.2-1652.4z M288.5-1652.3h-0.2l-0.1,0.2l-98.9,98.9l175.9-320l5.2-9.4l0.7,0.4l-0.2-0.7
							l185.1-37L288.5-1652.3z M369.3-1884.7l-26.6-14.1l-194.3-103.9l167.9-69.2L369.3-1884.7z M62.1-2145.7l83.9,142.4l-292.2,4.1
							L62.1-2145.7z M-264.9-2259.2l115.8,260.3l-1.2,0.8h0.5L-265-1882.9L-264.9-2259.2z M-266.1-1881.6l-0.1,0.1l0.1,0.2v139.8
							l-12.5-43.2l-92.3-318l0.8-0.2l-0.7-0.4l104.7-157L-266.1-1881.6z M-543-2197.9l169.8,95l-163.6,49.6l-76,23.1L-543-2197.9z
							 M-775-2070.3l160,41.4l-203.8,209.5L-775-2070.3z M-820.5-1817.1l-0.2,1.4l0.3-0.3v162.9l-266.1-266.2L-820.5-1817.1z
							 M-820.4-1651.4v0.2l0.3,0.1l98.9,98.9l-329.3-181.1l0.4-0.7l-0.7,0.2l-37-185.1L-820.4-1651.4z M-1052.6-1732.1l-9.5,17.9
							l-108.5,203l-69.2-167.9L-1052.6-1732.1z M-1171.3-1508.9l4.1,292.3l-146.4-208.3L-1171.3-1508.9z M-1166.8-1213.9l0.8,1.2
							v-0.5l115.2,115.2h-376.3L-1166.8-1213.9z M-1049.6-1096.7L-1049.6-1096.7h0.3h139.9l-361,104.9l-0.2-0.8l-0.4,0.7l-157-104.8
							H-1049.6z M-1270.9-989.5l38.2,126l34.5,113.7l-167.7-69.8L-1270.9-989.5z M-1238.2-587.7l41.3-160l24.5,23.9l185,179.9
							L-1238.2-587.7z M-985.2-542.3l1.4,0.2l-0.3-0.3h162.9l-266.1,266.1L-985.2-542.3z M-819.5-542.4h0.2l0.1-0.3l98.9-98.9
							l-116,211l-65.2,118.6l-0.7-0.4l0.2,0.7l-185.1,37L-819.5-542.4z M-900.2-310.1L-679.4-192l-167.9,69.2L-900.2-310.1z
							 M-593-49l-83.9-142.4l292.2-4.1L-593-49z M-266.2,64.5L-382-195.8l1.2-0.8h-0.5l115.1-115.2L-266.2,64.5L-266.2,64.5z
							 M-264.9-313.1l0.1-0.1l-0.1-0.3v-139.8l70.6,243.2L-160-92.2l-0.8,0.2l0.7,0.4L-264.9,65.3V-313.1z M12.1,3.3l-169.8-95
							l213.3-64.7l26.3-8L12.1,3.3z M244.1-124.4l-160-41.4l16.6-17.1l187.2-192.5L244.1-124.4z M289.5-377.5l0.2-1.5l-0.3,0.3
							v-162.9l266,266.1L289.5-377.5z M521.6-462.5l17.7-33.1l100.3-187.8l69.2,167.9L521.6-462.5z"/>
					</g>
				</g>
			</g>
		</g>
		<path class="st2" d="M237.1,374.8c25.8,0,46.7,20.9,46.7,46.6c0,25.8-20.9,46.6-46.7,46.6s-46.7-20.9-46.7-46.6l0,0
			C190.4,395.7,211.3,374.8,237.1,374.8 M237.1,356.3c-36,0-65.2,29.2-65.2,65.1s29.2,65.1,65.2,65.1s65.2-29.2,65.2-65.1
			S273,356.3,237.1,356.3L237.1,356.3z"/>
		<rect x="171.9" y="292.8" class="st2" width="18.3" height="129.4"/>
		<polygon class="st3" points="597.3,537.6 582.2,513.9 582.1,513.9 582.1,537.6 577.6,537.6 577.6,507 582.5,507 597.4,530.3 
			597.5,530.3 597.5,507 601.9,507 601.9,537.6 		"/>
		<polygon class="st3" points="614.5,537.6 614.5,507 630.9,507 630.9,511.1 618.9,511.1 618.9,520.1 630.9,520.1 630.9,524.2 
			618.9,524.2 618.9,533.5 630.9,533.5 630.9,537.6 		"/>
		<polygon class="st3" points="651.4,537.6 651.4,511.1 643.5,511.1 643.5,507 663.8,507 663.8,511.1 655.9,511.1 655.9,537.6 		"/>
		<polygon class="st3" points="699.9,537.6 694.4,516.2 694.3,516.2 688.8,537.6 684.9,537.6 676.3,507 681,507 686.8,530 
			686.9,530 692.8,507 696,507 701.8,529.9 701.9,529.9 707.9,507 712.4,507 703.9,537.6 		"/>
		<path class="st3" d="M752.3,522.4c0-1.4-0.3-2.8-0.7-4.1c-0.5-1.4-1.2-2.7-2.1-3.8c-1-1.2-2.2-2.1-3.6-2.8c-1.6-0.8-3.3-1.1-5-1.1
			c-1.8,0-3.5,0.3-5.1,1.2c-1.4,0.7-2.6,1.7-3.6,2.9c-1.7,2.2-2.7,4.9-2.8,7.7c0,1.3,0.2,2.7,0.7,4c0.5,1.4,1.2,2.7,2.1,3.8
			c1,1.2,2.2,2.2,3.6,2.9c3.2,1.5,7,1.5,10.2,0c1.4-0.7,2.6-1.7,3.5-2.9c0.9-1.1,1.6-2.4,2.1-3.8C752.1,525,752.3,523.7,752.3,522.4
			L752.3,522.4z M756.8,522.4c0,2.1-0.4,4.1-1.2,6c-0.8,1.9-1.9,3.6-3.3,5c-1.5,1.5-3.2,2.6-5.1,3.5c-4,1.7-8.6,1.7-12.6,0
			c-3.8-1.7-6.8-4.7-8.3-8.6c-1.6-3.8-1.6-8.2,0-12c0.8-1.9,1.9-3.6,3.3-5.1c1.4-1.5,3.1-2.7,5-3.5c2-0.9,4.2-1.3,6.4-1.3
			s4.3,0.4,6.3,1.3c1.9,0.8,3.6,2,5.1,3.4c1.4,1.5,2.6,3.2,3.3,5.1C756.4,518.2,756.8,520.3,756.8,522.4L756.8,522.4z"/>
		<path class="st3" d="M773.8,522.8h3c0.3,0,0.7,0,1.3,0s1.2-0.1,1.7-0.2c0.6-0.1,1.3-0.3,1.9-0.5c0.6-0.2,1.2-0.6,1.8-1
			c0.5-0.5,1-1,1.3-1.7c0.3-0.8,0.5-1.6,0.5-2.5c0-0.7-0.1-1.4-0.3-2c-0.2-0.7-0.6-1.3-1.1-1.8c-0.6-0.6-1.3-1.1-2.1-1.4
			c-1-0.4-2.1-0.6-3.2-0.5h-4.7v11.6H773.8z M783.9,537.6l-10.1-14.2h-0.1v14.2h-4.5V507h9.5c1.7-0.1,3.4,0.2,5.1,0.7
			c2.4,0.8,4.4,2.8,5.2,5.2c0.4,1.2,0.7,2.6,0.7,3.9c0.1,1.7-0.3,3.4-1.1,4.9c-0.6,1.1-1.5,2.1-2.5,2.8c-0.9,0.6-1.9,1.1-2.9,1.3
			c-0.7,0.2-1.5,0.3-2.2,0.3l8.5,11.4L783.9,537.6z"/>
		<polygon class="st3" points="818.4,537.6 806.8,522.2 806.8,522.2 806.8,537.6 802.3,537.6 802.3,507 806.8,507 806.8,522.2 
			806.8,522.2 818.4,507 823.9,507 812,522.2 823.9,537.6 		"/>
		<path class="st2" d="M337.2,352.7c0.7,2.7,1.1,5.4,1.2,8.2c0.3,3.4,0.4,7.8,0.4,13.3c5.8-7.1,13-12.9,21.2-17.2
			c7.8-4.1,16.5-6.3,25.3-6.3c1.1,0,2.1,0.1,3.2,0.2c0.9,0.1,1.7,0.3,2.5,0.5l-4,19.4c-2.9-0.7-5.9-1-8.9-0.9c-10.4,0-19.1,2.3-26,7
			s-11.3,9.4-13.3,13.9v88.8h-18.5V370.2c-0.2-10.1-0.4-15.9-0.7-17.5H337.2z"/>
		<polygon class="st4" points="409.8,352.7 428.3,352.7 428.3,479.5 409.8,479.5 		"/>
		<path class="st2" d="M503.5,426.3c4.3,0.1,8.5-0.7,12.4-2.4c3.3-1.5,6.2-3.9,8.4-6.9c2.3-3.2,3.9-6.8,4.7-10.7
			c1-4.6,1.5-9.2,1.5-13.9c0-3.8-0.5-7.5-1.6-11.1c-1-3.4-2.7-6.6-5-9.3c-2.3-2.7-5.2-4.9-8.5-6.4c-3.8-1.7-8-2.5-12.2-2.4
			c-5.7,0-10.5,0.9-14.2,2.7c-3.6,1.7-6.7,4.2-9.1,7.3c-2.3,3-3.9,6.5-4.8,10.1c-0.9,3.7-1.4,7.5-1.4,11.4c0,3.9,0.6,7.8,1.8,11.5
			c1.2,3.7,3,7.1,5.5,10.1c2.5,3,5.7,5.5,9.2,7.2C494.4,425.5,498.9,426.4,503.5,426.3z M476.1,474.4c-3.2,3.4-6,7.3-8.1,11.5
			c-1.8,3.5-2.8,7.3-2.9,11.2c0,4.8,1,8.7,3,11.8c2,3,4.7,5.6,7.8,7.3c3.4,1.9,7,3.1,10.8,3.8c4,0.7,8,1,12,1c2.2,0,4.8-0.1,7.9-0.4
			c3.2-0.3,6.5-0.7,9.7-1.4c3.3-0.6,6.6-1.4,9.9-2.5c3.1-1,6-2.3,8.7-3.9c2.4-1.4,4.6-3.3,6.3-5.6c1.6-2.2,2.4-4.8,2.4-7.5
			s-0.9-5.3-2.5-7.3c-1.9-2.3-4.1-4.2-6.7-5.7c-3.1-1.8-6.4-3.3-9.9-4.5c-3.8-1.3-10.3-2.9-19.4-4.6c-6.1-0.9-10.9-1.6-14.3-1.9
			c-3.4-0.4-6.4-0.6-9-0.8C479.3,474.7,477.4,474.5,476.1,474.4L476.1,474.4z M559.3,368.1c-2.9-0.1-5.8,0.1-8.6,0.5
			c-2.7,0.4-5.3,1-7.9,1.8c2.1,3.2,3.7,6.6,5,10.2c1.4,4.3,2.1,8.8,2,13.3c0,7.7-1.3,14.3-4,19.9c-2.5,5.4-6.1,10.1-10.7,13.9
			c-4.6,3.7-9.8,6.4-15.4,8.1c-5.8,1.8-11.9,2.7-18,2.6c-5.6,0-11.1-0.7-16.5-2c-1.6,0.3-3.3,0.7-4.8,1.3c-2,0.7-3.9,1.7-5.7,2.8
			c-1.8,1.1-3.4,2.5-4.8,4c-1.2,1.4-2,3.1-2,5c0,2,1.4,3.6,4.1,4.8c3.5,1.4,7.1,2.4,10.8,3c4.5,0.8,12.4,2,23.7,3.6
			c12,2,20.8,3.7,26.5,5.3c5.3,1.5,10.4,3.6,15.2,6.4c4.2,2.5,7.9,5.8,10.8,9.8c2.7,3.9,4.1,8.6,4.1,14.3c0.2,4.8-0.9,9.6-3,14
			c-2,3.9-4.8,7.3-8.2,10.1c-3.6,2.9-7.5,5.2-11.8,6.8c-4.6,1.8-9.3,3.2-14.1,4.2c-4.9,1-9.9,1.7-15,2c-5.1,0.4-9.9,0.5-14.4,0.5
			c-6.6,0.1-13.3-0.6-19.8-1.9c-5.4-1-10.7-3-15.4-5.8c-4.1-2.5-7.6-5.9-10.1-10c-2.5-4.4-3.8-9.4-3.6-14.4c0-3,0.5-6,1.6-8.9
			c1.1-3,2.5-5.8,4.3-8.4c1.9-2.7,4-5.2,6.3-7.4c2.4-2.2,4.9-4.3,7.6-6.1c-2.1-1-4.2-2.1-6.2-3.2s-3.8-2.4-5.5-3.9
			c-1.6-1.4-2.9-3.1-3.9-5c-1.1-2.1-1.6-4.4-1.5-6.8c0-2.8,0.9-5.5,2.5-7.7c1.7-2.4,3.8-4.6,6.2-6.3c2.4-1.9,5-3.5,7.8-4.7
			c2.3-1.1,4.8-2,7.3-2.7c-6.2-3.4-11.3-8.3-14.9-14.4c-3.4-5.8-5-13.2-5-21.9c-0.1-6.6,1.3-13.1,4.3-19c2.7-5.4,6.5-10.1,11.2-13.8
			c4.7-3.7,10.1-6.6,15.9-8.4c5.9-1.9,12-2.9,18.2-2.9c5.5,0,10.9,0.8,16.2,2.2c5.4,1.5,10.5,3.7,15.2,6.7
			c5.7-2.3,11.7-3.9,17.8-4.9c5.4-0.9,10.9-1.4,16.3-1.4l-2.1,15.1L559.3,368.1L559.3,368.1z"/>
		<path class="st2" d="M582.3,295.6h18.6v66.9c5.4-3,11-5.6,16.7-7.8c7.5-2.8,15.5-4.1,23.5-4c13.3,0,23.5,3.9,30.6,11.5
			c7.1,7.7,10.6,18,10.6,31.2v86.2h-18.5l0.1-85.1c0-9-2.2-16-6.7-21c-4.5-5-11.4-7.5-20.9-7.5c-6.2,0-12.4,1.1-18.3,3
			c-5.9,1.9-11.6,4.3-17.1,7.2v103.4h-18.6L582.3,295.6L582.3,295.6z"/>
		<path class="st2" d="M693.6,352.7h18.3v-32.1h18.5v32.1h30.9l-2,16.1h-28.9V442c0,7.3,1.2,13.2,3.6,17.5c2.1,4.2,6.5,6.8,11.2,6.6
			c3.5-0.1,6.9-0.5,10.3-1.2c4.2-0.8,6.9-1.4,8.2-1.8l1.4,16.1c-1.6,0.3-4.9,0.8-9.9,1.5c-4,0.6-8,0.9-12,1c-10,0-17.6-2.5-23.2-7.4
			c-5.5-4.9-8.3-14-8.3-27.4v-78h-18.1V352.7z"/>
		<path class="st2" d="M786.8,295.6h18.5v158c0,4.8,1,8,2.8,9.8s5.2,2.6,9.9,2.6c0.6,0,1.5,0,2.8-0.1c1.2-0.1,2.4-0.2,3.7-0.4
			l2.7,10.9c-1.4,0.6-3,1.2-4.7,1.9s-3.5,1.2-5.4,1.7c-1.8,0.5-3.7,0.9-5.6,1.2c-1.8,0.3-3.5,0.4-5.3,0.4c-6.1,0-10.8-2-14.3-5.9
			c-3.4-3.9-5.1-9.8-5.1-17.5L786.8,295.6L786.8,295.6z"/>
		<path class="st4" d="M884.3,454.1l33.3-101.4h20L887,489.2c-2.5,6.6-5.4,13-8.7,19.2c-2.7,5.1-6,9.7-10,13.9
			c-3.6,3.8-8,6.8-12.9,8.7c-5,2-11.1,3-18.3,3c-1.7,0-3.4-0.1-5.2-0.2v-17.1c1.5,0.2,3,0.3,4.6,0.3c4.3,0.1,8.6-0.6,12.5-2.3
			c3.4-1.5,6.4-3.8,8.8-6.6c2.7-3.2,5-6.8,6.6-10.7c1.9-4.2,3.9-9,5.9-14.4c1.4-3.8,2.5-7.7,3.2-11.6l-47.7-118.5h20L884.3,454.1
			L884.3,454.1z"/>
		
			<linearGradient id="SVGID_3_" gradientUnits="userSpaceOnUse" x1="296.35" y1="361.2344" x2="384.55" y2="361.2344" gradientTransform="matrix(1 0 0 1 0 -166)">
			<stop  offset="0" style="stop-color:#C72128"/>
			<stop  offset="0.5" style="stop-color:#E35725"/>
			<stop  offset="1" style="stop-color:#F48020"/>
		</linearGradient>
		<polygon class="st5" points="304.1,170 296.4,193.8 326.1,220.5 384.6,196.2 		"/>
		
			<linearGradient id="SVGID_4_" gradientUnits="userSpaceOnUse" x1="304.75" y1="332.7652" x2="385.25" y2="332.7652" gradientTransform="matrix(1 0 0 1 0 -166)">
			<stop  offset="0.14" style="stop-color:#A41E23"/>
			<stop  offset="0.5" style="stop-color:#CB2128"/>
			<stop  offset="0.8" style="stop-color:#EB2428"/>
		</linearGradient>
		<polygon class="st6" points="304.8,167.6 312.6,143.9 352.3,139.7 385.3,193.8 		"/>
		
			<linearGradient id="SVGID_5_" gradientUnits="userSpaceOnUse" x1="460.0652" y1="-2268.4189" x2="460.0652" y2="-2353.0906" gradientTransform="matrix(-0.81 -0.59 0.59 -0.81 2123.5002 -1313.6801)">
			<stop  offset="0" style="stop-color:#EB9AC2"/>
			<stop  offset="0.5" style="stop-color:#E44F9B"/>
			<stop  offset="0.61" style="stop-color:#E63794"/>
			<stop  offset="0.75" style="stop-color:#E8228F"/>
			<stop  offset="0.88" style="stop-color:#EA158B"/>
			<stop  offset="1" style="stop-color:#EA118A"/>
		</linearGradient>
		<polygon class="st7" points="348.5,305.4 368.7,320 403.3,300 398.3,236.8 		"/>
		
			<linearGradient id="SVGID_6_" gradientUnits="userSpaceOnUse" x1="1167.3307" y1="-2268.417" x2="1167.3307" y2="-2353.0862" gradientTransform="matrix(0.81 0.59 0.59 -0.81 769.29 -2298.45)">
			<stop  offset="0" style="stop-color:#DB3B94"/>
			<stop  offset="0.5" style="stop-color:#B2287D"/>
			<stop  offset="1" style="stop-color:#7F1F5D"/>
		</linearGradient>
		<polygon class="st8" points="346.5,303.9 326.3,289.2 334.7,250.1 396.3,235.3 		"/>
		
			<linearGradient id="SVGID_7_" gradientUnits="userSpaceOnUse" x1="-276.5654" y1="-1731.7518" x2="-276.5654" y2="-1816.4135" gradientTransform="matrix(0.81 -0.59 -0.59 -0.81 -372.16 -1313.6801)">
			<stop  offset="0" style="stop-color:#F3B92F"/>
			<stop  offset="0.5" style="stop-color:#F59D35"/>
			<stop  offset="0.82" style="stop-color:#EB5930"/>
		</linearGradient>
		<polygon class="st9" points="489.7,305.4 469.4,320 434.9,300 439.9,236.8 		"/>
		
			<linearGradient id="SVGID_8_" gradientUnits="userSpaceOnUse" x1="1904.0017" y1="-1731.7499" x2="1904.0017" y2="-1816.4089" gradientTransform="matrix(-0.81 0.59 -0.59 -0.81 982.05 -2298.45)">
			<stop  offset="0" style="stop-color:#F9EC23"/>
			<stop  offset="0.23" style="stop-color:#FAE322"/>
			<stop  offset="0.5" style="stop-color:#FCD220"/>
			<stop  offset="0.61" style="stop-color:#F9CA25"/>
			<stop  offset="0.93" style="stop-color:#F3B92F"/>
		</linearGradient>
		<polygon class="st10" points="491.6,303.9 511.8,289.2 503.5,250.1 441.9,235.3 		"/>
		
			<linearGradient id="SVGID_9_" gradientUnits="userSpaceOnUse" x1="-173.6723" y1="-25.4719" x2="-173.6723" y2="-110.1787" gradientTransform="matrix(-0.31 -0.95 -0.95 0.31 382.14 58.71)">
			<stop  offset="0" style="stop-color:#79B443"/>
			<stop  offset="0.5" style="stop-color:#349445"/>
			<stop  offset="1" style="stop-color:#00773E"/>
		</linearGradient>
		<polygon class="st11" points="534.1,170.1 541.8,193.9 512.1,220.6 453.6,196.3 		"/>
		
			<linearGradient id="SVGID_10_" gradientUnits="userSpaceOnUse" x1="1804.0571" y1="-25.4704" x2="1804.0571" y2="-110.1334" gradientTransform="matrix(0.31 0.95 -0.95 0.31 -135.48 -1531.9698)">
			<stop  offset="0" style="stop-color:#CDDA74"/>
			<stop  offset="0.63" style="stop-color:#96C250"/>
			<stop  offset="0.95" style="stop-color:#7AB542"/>
		</linearGradient>
		<polygon class="st12" points="533.4,167.8 525.7,144 485.9,139.9 452.9,194 		"/>
		
			<linearGradient id="SVGID_11_" gradientUnits="userSpaceOnUse" x1="1522.9115" y1="138.253" x2="1522.9115" y2="100.1613" gradientTransform="matrix(-0.8 0.6 0.6 0.8 1509.1399 -897.13)">
			<stop  offset="0" style="stop-color:#F9EC23"/>
			<stop  offset="0.5" style="stop-color:#FCD220"/>
			<stop  offset="1" style="stop-color:#F3B92F"/>
		</linearGradient>
		<polygon class="st13" points="342.4,100.6 351.4,93.8 367,102.7 365.1,131.1 		"/>
		
			<linearGradient id="SVGID_12_" gradientUnits="userSpaceOnUse" x1="130.7581" y1="138.2566" x2="130.7581" y2="100.1231" gradientTransform="matrix(0.8 -0.6 0.6 0.8 169.08 104.76)">
			<stop  offset="0" style="stop-color:#F3B92F"/>
			<stop  offset="0.5" style="stop-color:#F59D35"/>
			<stop  offset="1" style="stop-color:#EB5930"/>
		</linearGradient>
		<polygon class="st14" points="341.5,101.2 332.5,108 336.5,125.5 364.3,131.8 		"/>
		
			<linearGradient id="SVGID_13_" gradientUnits="userSpaceOnUse" x1="221.3168" y1="103.7926" x2="221.3168" y2="65.6936" gradientTransform="matrix(-0.82 -0.58 -0.58 0.82 723.7 180.1)">
			<stop  offset="0" style="stop-color:#DB3B94"/>
			<stop  offset="0.5" style="stop-color:#B2287D"/>
			<stop  offset="1" style="stop-color:#7F1F5D"/>
		</linearGradient>
		<polygon class="st15" points="496,101.1 505.2,107.6 501.7,125.2 474,132.3 		"/>
		
			<linearGradient id="SVGID_14_" gradientUnits="userSpaceOnUse" x1="1432.552" y1="105.0698" x2="1432.552" y2="66.9535" gradientTransform="matrix(0.8165 0.5773 -0.5773 0.8165 -643.5135 -786.5806)">
			<stop  offset="0" style="stop-color:#EB9AC2"/>
			<stop  offset="0.5" style="stop-color:#E44F9B"/>
			<stop  offset="1" style="stop-color:#EA118A"/>
		</linearGradient>
		<polygon class="st16" points="495.1,100.5 486,94 470.5,103.2 473.1,131.6 		"/>
		
			<linearGradient id="SVGID_15_" gradientUnits="userSpaceOnUse" x1="-247.1084" y1="-1871.74" x2="-247.1084" y2="-1909.849" gradientTransform="matrix(-0.2967 -0.955 0.955 -0.2967 2046.3446 -546.8668)">
			<stop  offset="0" style="stop-color:#79B443"/>
			<stop  offset="0.5" style="stop-color:#349445"/>
			<stop  offset="1" style="stop-color:#00773E"/>
		</linearGradient>
		<polygon class="st17" points="293.1,246.9 296.5,257.6 314.3,259.7 329.5,235.6 		"/>
		
			<linearGradient id="SVGID_16_" gradientUnits="userSpaceOnUse" x1="1897.8508" y1="-1873.2999" x2="1897.8508" y2="-1911.401" gradientTransform="matrix(0.3 0.95 0.95 -0.3 1548.97 -2143.2)">
			<stop  offset="0" style="stop-color:#CDDA74"/>
			<stop  offset="0.5" style="stop-color:#96C250"/>
			<stop  offset="1" style="stop-color:#7AB542"/>
		</linearGradient>
		<polygon class="st18" points="292.8,245.8 289.5,235.1 303,223.3 329.2,234.5 		"/>
		
			<radialGradient id="SVGID_17_" cx="832.1378" cy="-2510.8948" r="23.09" fx="815.5417" fy="-2510.8948" gradientTransform="matrix(-9.986979e-03 0.9989 0.9088 9.989168e-03 2705.4495 -494.9608)" gradientUnits="userSpaceOnUse">
			<stop  offset="0.14" style="stop-color:#8CD3F4"/>
			<stop  offset="0.43" style="stop-color:#6FC9F1"/>
			<stop  offset="0.53" style="stop-color:#59BAE8"/>
			<stop  offset="0.7" style="stop-color:#38A5DC"/>
			<stop  offset="0.84" style="stop-color:#2498D4"/>
			<stop  offset="0.94" style="stop-color:#1D93D1"/>
		</radialGradient>
		<polygon class="st19" points="418.4,339.3 407.2,339.3 399.9,322.8 418.4,301.2 		"/>
		
			<radialGradient id="SVGID_18_" cx="1280.4559" cy="-2343.0071" r="22.24" fx="1268.0703" fy="-2343.0071" gradientTransform="matrix(-0.9987 0 0 -0.9989 1705.2532 -2026.4601)" gradientUnits="userSpaceOnUse">
			<stop  offset="0" style="stop-color:#294A98"/>
			<stop  offset="0.35" style="stop-color:#294996"/>
			<stop  offset="0.5" style="stop-color:#28458F"/>
			<stop  offset="0.61" style="stop-color:#283E82"/>
			<stop  offset="0.68" style="stop-color:#273675"/>
			<stop  offset="1" style="stop-color:#26245C"/>
		</radialGradient>
		<polygon class="st20" points="419.5,339.3 430.8,339.3 438.1,322.8 419.5,301.2 		"/>
		
			<linearGradient id="SVGID_19_" gradientUnits="userSpaceOnUse" x1="-476.3159" y1="-875.0922" x2="-476.3159" y2="-913.1797" gradientTransform="matrix(0.32 -0.95 -0.95 -0.32 -170.21 -486.99)">
			<stop  offset="0" style="stop-color:#EB2428"/>
			<stop  offset="0.5" style="stop-color:#CB2128"/>
			<stop  offset="1" style="stop-color:#A41E23"/>
		</linearGradient>
		<polygon class="st21" points="544.2,247.7 540.6,258.4 522.7,260 508.1,235.5 		"/>
		
			<linearGradient id="SVGID_20_" gradientUnits="userSpaceOnUse" x1="2129.7283" y1="-875.0922" x2="2129.7283" y2="-913.225" gradientTransform="matrix(-0.3213 0.947 -0.947 -0.3213 366.8921 -2072.3398)">
			<stop  offset="0" style="stop-color:#F48020"/>
			<stop  offset="0.5" style="stop-color:#E35725"/>
			<stop  offset="1" style="stop-color:#C72128"/>
		</linearGradient>
		<polygon class="st22" points="544.5,246.7 548.1,236 534.9,223.9 508.4,234.4 		"/>
		
			<radialGradient id="SVGID_21_" cx="432.0825" cy="-83.4099" r="51.66" fx="394.6045" fy="-47.8564" gradientTransform="matrix(0.443 -0.8953 0.7519 0.3722 278.8361 554.3297)" gradientUnits="userSpaceOnUse">
			<stop  offset="0.14" style="stop-color:#8CD3F4"/>
			<stop  offset="0.43" style="stop-color:#6FC9F1"/>
			<stop  offset="0.53" style="stop-color:#59BAE8"/>
			<stop  offset="0.7" style="stop-color:#38A5DC"/>
			<stop  offset="0.84" style="stop-color:#2498D4"/>
			<stop  offset="0.94" style="stop-color:#1D93D1"/>
		</radialGradient>
		<polygon class="st23" points="417.8,87.1 392.8,87.1 376.7,123.7 417.8,171.8 		"/>
		
			<radialGradient id="SVGID_22_" cx="1242.916" cy="302.7469" r="50.86" fx="1206.8469" fy="302.7469" gradientTransform="matrix(-0.9987 0 0 0.9989 1671.8967 -166.2372)" gradientUnits="userSpaceOnUse">
			<stop  offset="0" style="stop-color:#294A98"/>
			<stop  offset="0.35" style="stop-color:#294996"/>
			<stop  offset="0.5" style="stop-color:#28458F"/>
			<stop  offset="0.61" style="stop-color:#283E82"/>
			<stop  offset="0.68" style="stop-color:#273675"/>
			<stop  offset="1" style="stop-color:#26245C"/>
		</radialGradient>
		<polygon class="st24" points="420.3,87.1 445.2,87.1 461.4,123.7 420.3,171.8 		"/>
	</g>
</g>
</svg>
