<?xml version="1.0" encoding="utf-8"?>
<!-- Generator: Adobe Illustrator 24.1.0, SVG Export Plug-In . SVG Version: 6.00 Build 0)  -->
<svg version="1.1" id="Layer_1" xmlns="http://www.w3.org/2000/svg" xmlns:xlink="http://www.w3.org/1999/xlink" x="0px" y="0px"
	 viewBox="0 0 600 410" style="enable-background:new 0 0 600 410;" xml:space="preserve">
<style type="text/css">
	.st0{fill:#FFFFFF;}
	.st1{enable-background:new    ;}
	.st2{fill:#F4711E;}
	.st3{fill:#C300A3;}
	.st4{fill:#192F53;}
	.st5{fill-rule:evenodd;clip-rule:evenodd;fill:url(#SVGID_1_);}
	.st6{fill-rule:evenodd;clip-rule:evenodd;fill:#F4711E;}
	.st7{fill-rule:evenodd;clip-rule:evenodd;fill:url(#SVGID_2_);}
	.st8{fill-rule:evenodd;clip-rule:evenodd;fill:#FFFFFF;}
</style>
<path class="st0" d="M0,148c8.8-0.1,22.4-0.1,39,0c53.4,0.4,67.1,2,108,2c65.5,0,81.5-4.1,91-7c20.4-6.3,35.2-14.5,52-24
	c39.8-22.5,65.7-45.5,71-50c27-22.8,87.7-45.1,239-37c0,115.3,0,230.7,0,346H0C0,301.3,0,224.7,0,148z"/>
<g>
	<g id="Layer_1-2">
		<g class="st1">
			<path class="st2" d="M12,337.8h10.3c2.9,0,5.3,0.9,6.8,2.4c1.2,1.2,1.8,2.8,1.8,4.7v0.1c0,4-2.7,6.3-6.5,7l7.4,9.8h-3.3l-6.9-9.3
				h-6.8v9.3H12V337.8z M22.1,350c3.6,0,6.2-1.8,6.2-4.9V345c0-2.9-2.3-4.7-6.1-4.7h-7.4v9.7H22.1z"/>
		</g>
		<g class="st1">
			<path class="st2" d="M47.2,359.9c2.4,0,4.1-1,5.6-2.5l1.6,1.5c-1.8,2-3.9,3.3-7.3,3.3c-4.9,0-8.8-3.7-8.8-9.2
				c0-5.1,3.6-9.2,8.5-9.2c5.2,0,8.2,4.2,8.2,9.4c0,0.2,0,0.5,0,0.9H41C41.4,357.7,44.1,359.9,47.2,359.9z M52.4,351.9
				c-0.3-3.2-2.2-6-5.6-6c-3,0-5.4,2.5-5.7,6H52.4z"/>
			<path class="st2" d="M61.8,356.6L61.8,356.6c0-3.9,3.1-5.8,7.6-5.8c2.3,0,3.8,0.3,5.4,0.8V351c0-3.1-1.9-4.8-5.2-4.8
				c-2.1,0-3.7,0.5-5.4,1.3l-0.8-2.2c1.9-0.9,3.8-1.5,6.4-1.5c2.5,0,4.4,0.7,5.7,1.9c1.2,1.2,1.8,2.9,1.8,5.2v10.8h-2.6v-2.6
				c-1.2,1.6-3.2,3-6.4,3C65,362.2,61.8,360.3,61.8,356.6z M74.8,355.3v-1.6c-1.3-0.4-3-0.8-5.2-0.8c-3.3,0-5.2,1.4-5.2,3.6v0.1
				c0,2.2,2.1,3.5,4.4,3.5C72.1,360,74.8,358.1,74.8,355.3z"/>
			<path class="st2" d="M86.6,336.8h2.6v25h-2.6V336.8z"/>
			<path class="st2" d="M111.3,358.3l1.7-2c2.5,2.3,4.9,3.4,8.2,3.4c3.2,0,5.3-1.7,5.3-4.1v-0.1c0-2.2-1.2-3.5-6.2-4.5
				c-5.5-1.2-8-3-8-6.9V344c0-3.8,3.3-6.5,7.9-6.5c3.5,0,6,1,8.4,2.9l-1.6,2.1c-2.2-1.8-4.4-2.6-6.9-2.6c-3.1,0-5.1,1.7-5.1,3.9v0.1
				c0,2.3,1.2,3.5,6.5,4.7s7.8,3.1,7.8,6.8v0.1c0,4.1-3.4,6.8-8.2,6.8C117.3,362.1,114.2,360.9,111.3,358.3z"/>
			<path class="st2" d="M136.6,353L136.6,353c0-5.1,3.9-9.3,9.1-9.3c3.4,0,5.4,1.4,7.1,3.1l-1.7,1.8c-1.4-1.5-3-2.7-5.4-2.7
				c-3.6,0-6.3,3-6.3,6.8v0.1c0,3.8,2.8,6.9,6.5,6.9c2.3,0,4-1.1,5.4-2.6l1.7,1.6c-1.8,2-3.9,3.4-7.2,3.4
				C140.5,362.2,136.6,358,136.6,353z"/>
			<path class="st2" d="M160.8,337.3h3v2.9h-3V337.3z M160.9,344.1h2.6v17.7h-2.6V344.1z"/>
			<path class="st2" d="M180.9,359.9c2.4,0,4.1-1,5.6-2.5l1.6,1.5c-1.8,2-3.9,3.3-7.3,3.3c-4.9,0-8.8-3.7-8.8-9.2
				c0-5.1,3.6-9.2,8.5-9.2c5.2,0,8.2,4.2,8.2,9.4c0,0.2,0,0.5,0,0.9h-14C175.1,357.7,177.8,359.9,180.9,359.9z M186.1,351.9
				c-0.3-3.2-2.2-6-5.6-6c-3,0-5.4,2.5-5.7,6H186.1z"/>
			<path class="st2" d="M196.8,344.1h2.6v3.1c1.2-1.9,3-3.5,6.1-3.5c4.3,0,6.8,2.9,6.8,7.1v11h-2.6v-10.3c0-3.3-1.8-5.3-4.9-5.3
				c-3,0-5.3,2.2-5.3,5.5v10.1h-2.6v-17.7L196.8,344.1L196.8,344.1z"/>
		</g>
		<g class="st1">
			<path class="st2" d="M220.2,353L220.2,353c0-5.1,3.9-9.3,9.1-9.3c3.4,0,5.4,1.4,7.1,3.1l-1.7,1.8c-1.4-1.5-3-2.7-5.4-2.7
				c-3.6,0-6.3,3-6.3,6.8v0.1c0,3.8,2.8,6.9,6.5,6.9c2.3,0,4-1.1,5.4-2.6l1.7,1.6c-1.8,2-3.9,3.4-7.2,3.4
				C224.1,362.2,220.2,358,220.2,353z"/>
		</g>
		<g class="st1">
			<path class="st2" d="M251.5,359.9c2.4,0,4.1-1,5.6-2.5l1.6,1.5c-1.8,2-3.9,3.3-7.3,3.3c-4.9,0-8.8-3.7-8.8-9.2
				c0-5.1,3.6-9.2,8.5-9.2c5.2,0,8.2,4.2,8.2,9.4c0,0.2,0,0.5,0,0.9h-14C245.7,357.7,248.4,359.9,251.5,359.9z M256.7,351.9
				c-0.3-3.2-2.2-6-5.6-6c-3,0-5.4,2.5-5.7,6H256.7z"/>
		</g>
		<g class="st1">
			<path class="st2" d="M266.8,358.2h3.1v3.6h-3.1V358.2z"/>
		</g>
		<g class="st1">
			<path class="st3" d="M293,337.8h10.3c2.9,0,5.3,0.9,6.8,2.4c1.2,1.2,1.8,2.8,1.8,4.7v0.1c0,4-2.7,6.3-6.5,7l7.4,9.8h-3.3
				l-6.9-9.3h-6.8v9.3H293V337.8z M303.1,350c3.6,0,6.2-1.8,6.2-4.9V345c0-2.9-2.3-4.7-6.1-4.7h-7.4v9.7H303.1z"/>
		</g>
		<g class="st1">
			<path class="st3" d="M328.2,359.9c2.4,0,4.1-1,5.6-2.5l1.6,1.5c-1.8,2-3.9,3.3-7.3,3.3c-4.9,0-8.8-3.7-8.8-9.2
				c0-5.1,3.6-9.2,8.5-9.2c5.2,0,8.2,4.2,8.2,9.4c0,0.2,0,0.5,0,0.9h-14C322.3,357.7,325.1,359.9,328.2,359.9z M333.3,351.9
				c-0.3-3.2-2.2-6-5.6-6c-3,0-5.4,2.5-5.7,6H333.3z"/>
			<path class="st3" d="M342.7,356.6L342.7,356.6c0-3.9,3.1-5.8,7.6-5.8c2.3,0,3.8,0.3,5.4,0.8V351c0-3.1-1.9-4.8-5.2-4.8
				c-2.1,0-3.7,0.5-5.4,1.3l-0.8-2.2c1.9-0.9,3.8-1.5,6.4-1.5c2.5,0,4.4,0.7,5.7,1.9c1.2,1.2,1.8,2.9,1.8,5.2v10.8h-2.6v-2.6
				c-1.2,1.6-3.2,3-6.4,3C346,362.2,342.7,360.3,342.7,356.6z M355.7,355.3v-1.6c-1.3-0.4-3-0.8-5.2-0.8c-3.3,0-5.2,1.4-5.2,3.6v0.1
				c0,2.2,2.1,3.5,4.4,3.5C353.1,360,355.7,358.1,355.7,355.3z"/>
			<path class="st3" d="M367.5,336.8h2.6v25h-2.6V336.8z"/>
			<path class="st3" d="M392.2,358.3l1.7-2c2.5,2.3,4.9,3.4,8.2,3.4c3.2,0,5.3-1.7,5.3-4.1v-0.1c0-2.2-1.2-3.5-6.2-4.5
				c-5.5-1.2-8-3-8-6.9V344c0-3.8,3.3-6.5,7.9-6.5c3.5,0,6,1,8.4,2.9l-1.6,2.1c-2.2-1.8-4.4-2.6-6.9-2.6c-3.1,0-5.1,1.7-5.1,3.9v0.1
				c0,2.3,1.2,3.5,6.5,4.7s7.8,3.1,7.8,6.8v0.1c0,4.1-3.4,6.8-8.2,6.8C398.2,362.1,395.1,360.9,392.2,358.3z"/>
			<path class="st3" d="M417.6,353L417.6,353c0-5.1,3.9-9.3,9.2-9.3c5.3,0,9.2,4.2,9.2,9.2v0.1c0,5-3.9,9.2-9.3,9.2
				C421.5,362.2,417.6,358,417.6,353z M433.3,353L433.3,353c0-3.9-2.8-7-6.6-7c-3.8,0-6.5,3.1-6.5,6.8v0.1c0,3.8,2.8,6.9,6.5,6.9
				C430.7,359.8,433.3,356.8,433.3,353z"/>
			<path class="st3" d="M444.5,336.8h2.6v25h-2.6V336.8z"/>
			<path class="st3" d="M456.4,355.1v-11h2.6v10.3c0,3.3,1.8,5.3,4.9,5.3c3,0,5.3-2.2,5.3-5.5v-10.1h2.6v17.7h-2.6v-3.1
				c-1.2,1.9-3,3.5-6.1,3.5C458.9,362.2,456.4,359.3,456.4,355.1z"/>
			<path class="st3" d="M482,357.1v-10.7h-2.5v-2.3h2.5v-5.3h2.6v5.3h5.6v2.3h-5.6v10.3c0,2.2,1.2,2.9,3,2.9c0.9,0,1.6-0.2,2.6-0.6
				v2.3c-0.9,0.5-1.9,0.8-3.2,0.8C484.2,362.1,482,360.7,482,357.1z"/>
			<path class="st3" d="M498.4,337.3h3v2.9h-3V337.3z M498.6,344.1h2.6v17.7h-2.6V344.1z"/>
			<path class="st3" d="M509.7,353L509.7,353c0-5.1,3.9-9.3,9.2-9.3s9.2,4.2,9.2,9.2v0.1c0,5-3.9,9.2-9.3,9.2
				C513.6,362.2,509.7,358,509.7,353z M525.4,353L525.4,353c0-3.9-2.8-7-6.6-7s-6.5,3.1-6.5,6.8v0.1c0,3.8,2.8,6.9,6.5,6.9
				C522.8,359.8,525.4,356.8,525.4,353z"/>
			<path class="st3" d="M536.3,344.1h2.6v3.1c1.2-1.9,3-3.5,6.1-3.5c4.3,0,6.8,2.9,6.8,7.1v11h-2.6v-10.3c0-3.3-1.8-5.3-4.9-5.3
				c-3,0-5.3,2.2-5.3,5.5v10.1h-2.6L536.3,344.1L536.3,344.1z"/>
			<path class="st3" d="M559.3,359.5l1.3-1.9c1.9,1.4,4,2.3,6.1,2.3s3.7-1.1,3.7-2.8V357c0-1.8-2.1-2.5-4.4-3.1
				c-2.8-0.8-5.9-1.7-5.9-5v-0.1c0-3,2.5-5.1,6-5.1c2.2,0,4.5,0.8,6.4,1.9l-1.2,2c-1.6-1.1-3.5-1.7-5.2-1.7c-2.1,0-3.4,1.1-3.4,2.6
				v0.1c0,1.7,2.2,2.3,4.5,3c2.7,0.8,5.7,1.9,5.7,5.1v0.1c0,3.4-2.8,5.3-6.3,5.3C564.1,362.1,561.3,361.1,559.3,359.5z"/>
			<path class="st3" d="M580.9,358.2h3.1v3.6h-3.1V358.2z"/>
		</g>
		<g class="st1">
			<path class="st4" d="M76,274.5l1.8-2.6c2.6,2,5.5,3.1,8.3,3.1c2.9,0,5-1.5,5-3.8v-0.1c0-2.4-2.8-3.3-6-4.2c-3.8-1.1-8-2.4-8-6.8
				V260c0-4.1,3.4-6.9,8.2-6.9c2.9,0,6.2,1,8.7,2.7l-1.6,2.7c-2.2-1.4-4.8-2.3-7.1-2.3c-2.8,0-4.7,1.5-4.7,3.5v0.1
				c0,2.3,3,3.2,6.2,4.1c3.7,1.1,7.7,2.6,7.7,6.9v0.1c0,4.6-3.8,7.2-8.6,7.2C82.5,278,78.7,276.7,76,274.5z"/>
			<path class="st4" d="M104.3,265.6L104.3,265.6c0-6.9,5.3-12.7,12.3-12.7c4.6,0,7.4,1.9,9.6,4.3l-2.4,2.5c-1.9-2-4-3.6-7.3-3.6
				c-4.9,0-8.6,4.1-8.6,9.3v0.1c0,5.2,3.8,9.3,8.8,9.3c3.1,0,5.4-1.5,7.3-3.6l2.3,2.1c-2.4,2.7-5.3,4.7-9.8,4.7
				C109.6,278.1,104.3,272.4,104.3,265.6z"/>
			<path class="st4" d="M137.1,244.3h4.1v4h-4.1V244.3z M137.4,253.5h3.6v24h-3.6V253.5z"/>
			<path class="st4" d="M164.5,275c3.3,0,5.6-1.3,7.6-3.4l2.2,2c-2.4,2.7-5.3,4.5-9.9,4.5c-6.6,0-12-5.1-12-12.6
				c0-7,4.9-12.6,11.5-12.6c7.1,0,11.2,5.7,11.2,12.7c0,0.3,0,0.7,0,1.3H156C156.6,272.1,160.3,275,164.5,275z M171.5,264.1
				c-0.4-4.4-2.9-8.1-7.7-8.1c-4.1,0-7.3,3.4-7.8,8.1H171.5z"/>
			<path class="st4" d="M186.1,253.5h3.6v4.2c1.6-2.6,4.1-4.7,8.2-4.7c5.8,0,9.2,3.9,9.2,9.6v14.9h-3.6v-14c0-4.5-2.4-7.3-6.7-7.3
				c-4.1,0-7.2,3-7.2,7.5v13.8H186v-24H186.1z"/>
		</g>
		<g class="st1">
			<path class="st4" d="M217.9,265.6L217.9,265.6c0-6.9,5.3-12.7,12.3-12.7c4.6,0,7.4,1.9,9.6,4.3l-2.4,2.5c-1.9-2-4-3.6-7.3-3.6
				c-4.9,0-8.6,4.1-8.6,9.3v0.1c0,5.2,3.8,9.3,8.8,9.3c3.1,0,5.4-1.5,7.3-3.6l2.3,2.1c-2.4,2.7-5.3,4.7-9.8,4.7
				C223.2,278.1,217.9,272.4,217.9,265.6z"/>
		</g>
		<g class="st1">
			<path class="st4" d="M260.5,275c3.3,0,5.6-1.3,7.6-3.4l2.2,2c-2.4,2.7-5.3,4.5-9.9,4.5c-6.6,0-12-5.1-12-12.6
				c0-7,4.9-12.6,11.5-12.6c7.1,0,11.2,5.7,11.2,12.7c0,0.3,0,0.7,0,1.3H252C252.6,272.1,256.3,275,260.5,275z M267.5,264.1
				c-0.4-4.4-2.9-8.1-7.7-8.1c-4.1,0-7.3,3.4-7.8,8.1H267.5z"/>
		</g>
		<g class="st1">
			<path class="st4" d="M4.9,164.7h12l24.5,60.5l24.7-60.5h11.7l-31.7,73.4h-9.6L4.9,164.7z"/>
		</g>
		<g class="st1">
			<path class="st4" d="M115.7,229.8c10,0,17.1-4.1,23-10.3l6.8,6.1c-7.3,8.2-16.2,13.7-30,13.7c-20,0-36.4-15.4-36.4-38.1
				c0-21.1,14.8-38.1,35-38.1c21.6,0,34,17.2,34,38.6c0,1,0,2.1-0.1,3.8H90.1C91.6,220.9,102.9,229.8,115.7,229.8z M137,196.8
				c-1.3-13.3-8.9-24.5-23.3-24.5c-12.5,0-22.1,10.4-23.7,24.5H137z"/>
		</g>
		<g class="st1">
			<path class="st4" d="M160,164.7h10.9v19c5.4-12.1,15.9-20.9,29.7-20.3v11.7h-0.8c-15.9,0-28.9,11.4-28.9,33.4v29H160V164.7z"/>
		</g>
		<g class="st1">
			<path class="st4" d="M201,216.4v-0.3c0-15.6,12.7-23.8,31.2-23.8c9.3,0,15.8,1.3,22.3,3.1v-2.3c0-13-7.9-19.7-21.6-19.7
				c-8.6,0-15.4,2.1-22.1,5.2l-3.2-8.9c8-3.7,15.8-6.2,26.5-6.2c10.3,0,18.3,2.8,23.5,8c5.1,5.1,7.6,12.1,7.6,21.4v44.5h-10.7v-10.9
				c-5.1,6.5-13.4,12.4-26.2,12.4C214.5,239.1,201,231.4,201,216.4z M254.6,210.8V204c-5.4-1.6-12.4-3.1-21.3-3.1
				c-13.5,0-21.3,5.9-21.3,14.7v0.3c0,9.2,8.5,14.5,18.3,14.5C243.7,230.4,254.6,222.3,254.6,210.8z"/>
		</g>
		<g class="st1">
			<path class="st4" d="M487.8,218.3v-44h-10.1v-9.6h10.1v-22h10.9v22h23.1v9.6h-23.1v42.6c0,8.9,4.9,12.1,12.3,12.1
				c3.7,0,6.8-0.7,10.6-2.5v9.3c-3.8,2-7.9,3.1-13.1,3.1C496.7,238.8,487.8,233.1,487.8,218.3z"/>
			<path class="st4" d="M529.7,256.9l3.7-8.6c3.5,1.8,6.8,2.7,11.4,2.7c6.5,0,10.6-3.4,14.9-13.7l-33.1-72.6h12l26.5,60.8l23.4-60.8
				H600L569.4,240c-6.2,15.1-13.2,20.6-24.2,20.6C539.1,260.5,534.6,259.3,529.7,256.9z"/>
		</g>
		
			<linearGradient id="SVGID_1_" gradientUnits="userSpaceOnUse" x1="462.3613" y1="1578.8145" x2="387.4788" y2="1402.4055" gradientTransform="matrix(1 0 0 1 -44.72 -1286.9099)">
			<stop  offset="0" style="stop-color:#C300A3"/>
			<stop  offset="1" style="stop-color:#FF8A00"/>
		</linearGradient>
		<path class="st5" d="M476,203.7c0,52.9-42.9,95.8-95.8,95.8s-95.8-42.9-95.8-95.8s42.9-95.8,95.8-95.8l0,0
			C433.1,107.9,476,150.8,476,203.7L476,203.7z"/>
		<path class="st6" d="M489,115.4c0,10.4-8.4,18.9-18.9,18.9s-18.9-8.4-18.9-18.9c0-10.4,8.4-18.9,18.8-18.9
			C480.5,96.5,489,104.9,489,115.4C489,115.3,489,115.3,489,115.4z"/>
		
			<linearGradient id="SVGID_2_" gradientUnits="userSpaceOnUse" x1="415.9" y1="-459.9" x2="449.1" y2="-459.9" gradientTransform="matrix(1 0 0 -1 0 -380)">
			<stop  offset="0" style="stop-color:#C300A3"/>
			<stop  offset="1" style="stop-color:#FF8A00"/>
		</linearGradient>
		<path class="st7" d="M432.5,63.3c9.2,0,16.6,7.4,16.6,16.6s-7.4,16.6-16.6,16.6s-16.6-7.4-16.6-16.6S423.3,63.3,432.5,63.3
			L432.5,63.3z"/>
		<path class="st6" d="M467.1,41c6.9,0,12.4,5.6,12.4,12.5s-5.6,12.4-12.5,12.4s-12.4-5.6-12.4-12.4C454.6,46.6,460.2,41,467.1,41
			L467.1,41z"/>
		<g class="st1">
			<path class="st0" d="M291.5,228.3l5.5-7.8c7.9,5.9,16.6,9.3,25.2,9.3c8.7,0,15.1-4.5,15.1-11.6V218c0-7.3-8.6-10.1-18.2-12.8
				C307.7,202,295,198,295,184.6v-0.3c0-12.5,10.4-20.9,24.8-20.9c8.9,0,18.7,3.1,26.2,8l-4.9,8.2c-6.8-4.4-14.5-7-21.6-7
				c-8.6,0-14.1,4.5-14.1,10.6v0.3c0,6.9,9,9.6,18.7,12.5c11.3,3.4,23.4,7.8,23.4,20.9v0.3c0,13.8-11.4,21.8-25.9,21.8
				C311.2,239,299.6,234.9,291.5,228.3z"/>
			<path class="st0" d="M356.2,201.5v-0.3c0-20.6,16.1-38.1,37.4-38.1c13.8,0,22.4,5.8,29.2,13l-7.2,7.6c-5.8-6.1-12.3-11-22.1-11
				c-14.8,0-26.1,12.5-26.1,28.2v0.3c0,15.8,11.6,28.3,26.8,28.3c9.3,0,16.5-4.7,22.3-10.9l6.9,6.5c-7.3,8.2-16.1,14.1-29.7,14.1
				C372.2,239.3,356.2,221.9,356.2,201.5z"/>
			<path class="st0" d="M434.4,136.8h12.4v12h-12.4V136.8z M435.1,164.7H446v72.9h-10.9V164.7z"/>
		</g>
		<path id="dot" class="st8" d="M440.8,133.9c5,0,9.1,4.1,9.1,9.2c0,5.1-4.1,9.1-9.2,9.1c-5,0-9.1-4.1-9.1-9.1
			C431.6,138,435.7,133.9,440.8,133.9C440.7,133.9,440.7,133.9,440.8,133.9z"/>
	</g>
</g>
<path class="st0" d="M257,132"/>
<path class="st0" d="M331,68"/>
<path class="st0" d="M342,55"/>
<path class="st0" d="M674,72"/>
</svg>
